<?xml version="1.0" standalone="no"?>
<!DOCTYPE svg PUBLIC "-//W3C//DTD SVG 20010904//EN"
 "http://www.w3.org/TR/2001/REC-SVG-20010904/DTD/svg10.dtd">
<svg version="1.0" xmlns="http://www.w3.org/2000/svg"
 width="2048.000000pt" height="2048.000000pt" viewBox="0 0 2048.000000 2048.000000"
 preserveAspectRatio="xMidYMid meet">

<g transform="translate(0.000000,2048.000000) scale(0.100000,-0.100000)"
fill="#000000" stroke="none">
<path d="M13412 17372 c-45 -94 -82 -173 -82 -175 0 -3 -57 -122 -126 -264
-70 -142 -130 -267 -134 -279 -5 -13 1 -58 16 -120 13 -54 30 -146 37 -203 14
-104 14 -105 -10 -139 -26 -40 -30 -78 -8 -109 13 -18 13 -22 0 -33 -8 -7 -20
-30 -27 -51 -10 -35 -9 -42 10 -62 l22 -23 -55 -345 c-30 -189 -66 -409 -79
-489 -14 -80 -39 -235 -56 -345 -17 -110 -44 -282 -60 -382 -17 -101 -30 -185
-30 -188 0 -3 -4 -5 -9 -5 -4 0 -16 30 -26 68 -34 127 -96 297 -150 407 -143
296 -323 482 -547 563 -65 24 -87 27 -208 27 l-136 0 -79 -39 c-170 -84 -281
-247 -399 -584 -112 -322 -220 -517 -380 -687 l-82 -88 -41 68 -42 69 20 27
c31 44 45 122 31 176 -7 25 -11 46 -10 47 2 0 17 8 33 16 39 20 43 59 17 143
-40 126 -57 257 -33 257 5 0 33 -38 61 -85 28 -46 61 -91 73 -100 26 -18 62
-19 106 -4 38 13 39 4 -18 170 -22 64 -56 192 -77 285 -56 256 -155 667 -165
686 -12 22 -90 68 -115 68 -11 0 -29 -7 -40 -15 -19 -13 -23 -12 -46 13 -21
23 -24 34 -20 83 3 52 6 57 37 72 20 9 44 34 60 61 39 67 46 131 28 271 -18
141 -13 206 20 278 31 68 72 115 136 152 28 17 51 33 51 37 1 31 -185 21 -262
-14 -67 -31 -142 -97 -169 -150 -13 -25 -26 -38 -39 -38 -23 0 -78 -77 -87
-123 -10 -47 -21 -40 -33 20 -32 150 28 298 157 390 35 25 63 48 63 53 0 25
-36 33 -138 32 -292 -2 -611 -136 -806 -337 -52 -53 -117 -149 -162 -237 -34
-67 -84 -217 -77 -235 3 -7 22 -16 43 -19 112 -18 170 -118 117 -200 -14 -21
-31 -60 -37 -86 -15 -57 -49 -93 -80 -83 -19 6 -21 11 -14 48 20 103 -10 210
-77 275 -19 18 -63 47 -97 64 -62 31 -68 32 -255 39 -202 8 -255 18 -332 64
-71 41 -131 127 -169 238 -10 31 -30 13 -44 -39 -18 -67 -10 -193 16 -244 15
-32 18 -53 14 -108 -5 -79 15 -163 50 -208 13 -15 21 -36 20 -46 -10 -57 88
-222 166 -279 70 -51 133 -79 179 -79 38 0 49 5 71 32 43 52 102 108 114 108
6 0 -10 -23 -36 -50 -66 -71 -89 -126 -94 -230 -4 -81 -2 -92 49 -245 53 -157
54 -162 54 -280 0 -129 1 -126 -76 -262 -33 -57 -18 -72 43 -46 115 51 211
218 238 411 8 63 8 106 -2 189 -18 153 -16 264 6 297 33 51 41 28 38 -105 -4
-149 12 -234 69 -358 22 -46 39 -99 39 -118 0 -19 8 -48 17 -63 14 -24 15 -36
6 -72 -17 -63 -46 -139 -64 -168 -21 -32 -53 -186 -44 -208 4 -9 11 -56 15
-104 5 -73 11 -93 36 -128 50 -72 82 -138 72 -148 -6 -6 -31 0 -66 14 -62 26
-145 31 -186 13 -22 -10 -31 -8 -68 16 -65 43 -197 181 -256 268 -70 102 -154
279 -236 502 -127 341 -222 500 -347 584 -96 64 -177 84 -312 79 -133 -6 -217
-34 -331 -108 -277 -181 -507 -610 -600 -1120 -43 -238 -57 -433 -57 -795 1
-294 -7 -476 -25 -602 -6 -39 -4 -42 26 -58 30 -15 52 -15 94 1 14 6 16 -29
16 -353 0 -380 0 -383 47 -383 26 0 25 6 48 -235 9 -93 39 -341 66 -550 109
-833 143 -1179 165 -1680 4 -88 10 -170 15 -182 12 -32 54 -56 85 -49 14 4 47
28 72 54 37 37 53 64 75 127 26 76 57 244 57 310 l0 30 18 -35 c9 -19 29 -41
44 -50 25 -13 29 -13 55 6 65 46 120 219 139 429 l6 70 37 -42 c27 -30 41 -58
50 -100 7 -32 31 -110 52 -173 21 -63 39 -118 39 -122 0 -4 -21 -21 -47 -39
-118 -79 -196 -192 -207 -302 -10 -95 -15 -3765 -5 -3835 18 -126 80 -219 217
-323 287 -218 893 -380 1608 -430 225 -15 867 -7 1054 15 542 61 936 163 1220
314 84 45 234 145 245 163 11 16 35 10 81 -22 24 -16 75 -44 112 -62 57 -27
78 -31 142 -31 147 0 220 72 220 216 0 120 -45 235 -115 295 -52 46 -83 117
-175 398 -106 327 -132 464 -110 570 13 64 63 218 115 360 252 679 417 1238
524 1770 20 99 47 194 80 280 109 286 139 515 82 636 -22 46 -273 289 -451
437 -62 51 -98 90 -120 128 -30 54 -30 56 -21 132 15 121 79 586 105 770 25
171 48 371 69 592 11 112 14 125 32 128 31 6 45 32 45 87 0 45 7 60 65 150 36
55 98 154 137 220 39 66 88 145 108 175 65 97 111 199 127 284 26 137 1 563
-43 714 -13 45 -28 65 -109 144 -71 70 -93 97 -90 112 2 12 50 300 106 641 55
341 136 832 178 1092 l78 472 33 27 c30 26 32 30 26 76 -6 40 -3 53 15 78 21
27 22 33 10 82 l-13 53 51 108 c28 60 73 148 101 197 l50 88 -30 214 c-16 117
-36 256 -44 308 -8 52 -22 163 -31 245 -10 83 -20 161 -24 174 -6 19 -21 -6
-89 -147z m-11 -278 c-21 -80 -103 -495 -131 -668 -39 -237 -41 -238 -65 -57
-10 69 -25 154 -35 190 -16 56 -17 70 -5 96 43 98 237 486 241 482 3 -3 1 -22
-5 -43z m100 -234 c12 -107 24 -214 27 -236 3 -35 -3 -54 -41 -120 -25 -44
-66 -127 -92 -186 -36 -83 -52 -108 -66 -108 -22 0 -22 -4 16 225 14 77 43
259 65 405 23 146 44 272 47 280 9 21 18 -34 44 -260z m-3190 -206 c-22 -26
-53 -72 -68 -103 -25 -51 -28 -66 -27 -166 0 -117 3 -128 74 -280 17 -35 30
-76 30 -91 0 -24 -3 -26 -27 -19 -40 9 -48 20 -78 115 -39 120 -48 122 -39 9
7 -97 2 -115 -28 -104 -7 3 -24 33 -38 68 -13 34 -26 65 -29 69 -3 4 -6 -23
-6 -60 0 -58 -2 -67 -18 -67 -14 0 -26 20 -49 80 -17 44 -38 89 -46 100 -13
18 -13 15 -6 -35 11 -78 11 -149 -1 -152 -5 -1 -20 17 -33 40 -31 55 -44 54
-40 -5 3 -42 0 -48 -18 -51 -16 -2 -29 11 -58 57 -20 33 -42 63 -48 67 -6 4
-8 3 -5 -3 4 -6 13 -38 21 -72 14 -62 14 -62 -9 -73 -20 -9 -27 -6 -55 23
l-31 34 6 -43 c5 -28 3 -48 -6 -58 -11 -13 -17 -11 -46 18 l-35 33 7 -48 c6
-39 4 -52 -10 -67 -18 -20 -19 -19 -46 29 -30 52 -65 82 -113 98 -35 11 -41
23 -23 46 11 16 20 17 72 9 33 -6 62 -8 64 -6 10 10 -33 54 -64 65 -19 7 -35
17 -35 21 0 18 41 88 51 88 6 0 36 -18 68 -40 31 -22 60 -40 65 -40 15 0 -7
47 -50 103 l-45 58 30 37 c16 20 47 54 69 76 l40 38 26 -54 c33 -70 109 -175
114 -159 2 7 -15 66 -38 132 -24 66 -41 121 -39 123 19 18 135 86 146 86 8 0
13 -12 13 -33 0 -42 27 -135 47 -162 14 -18 14 -13 9 57 -4 43 -4 100 0 127 6
46 9 51 45 65 55 22 62 20 45 -12 -26 -50 -38 -147 -26 -209 5 -31 10 -59 10
-62 1 -22 20 30 20 54 0 44 27 140 57 207 22 50 31 59 62 67 66 17 76 19 129
20 l54 1 -41 -46z m379 -126 c-35 -38 -57 -80 -76 -143 -14 -51 -16 -78 -8
-180 20 -289 3 -345 -106 -345 -36 0 -42 3 -57 35 -15 32 -15 36 0 53 22 24
40 112 29 141 -8 22 -10 20 -26 -22 -9 -25 -24 -51 -32 -57 -12 -10 -14 -8
-14 15 0 16 -11 51 -25 79 -19 39 -24 60 -19 86 7 33 7 33 17 9 9 -23 9 -23
17 -4 5 11 9 36 10 55 0 19 7 46 15 60 14 24 14 23 15 -26 0 -27 6 -59 14 -70
14 -18 15 -18 21 11 23 102 39 153 55 185 17 34 45 65 59 65 3 0 5 3 3 8 -3
11 89 67 110 67 17 0 17 -2 -2 -22z m2674 -391 c33 -22 34 -54 1 -69 -30 -14
-146 4 -182 28 -23 14 -30 43 -15 58 14 15 168 1 196 -17z m-4797 -134 c76
-44 128 -55 319 -63 207 -9 258 -21 324 -77 53 -46 79 -102 80 -171 0 -43 -8
-71 -41 -138 -47 -95 -45 -115 12 -170 34 -33 37 -54 8 -54 -33 0 -57 18 -84
64 -29 50 -32 105 -8 143 26 40 21 121 -11 186 -47 96 -138 136 -311 137 -195
1 -331 64 -391 181 -36 72 -30 85 18 33 23 -25 61 -57 85 -71z m4767 -17 c28
-18 30 -24 17 -44 -10 -17 -79 -33 -87 -21 -3 6 -14 7 -25 4 -11 -4 -19 -2
-19 4 0 6 -8 11 -18 11 -32 0 -55 24 -47 50 7 21 11 22 80 18 45 -3 84 -11 99
-22z m-3085 -50 c8 -5 2 -18 -19 -42 -18 -21 -30 -46 -30 -63 l0 -29 -47 15
c-77 25 -260 22 -356 -5 -78 -22 -177 -67 -229 -104 -54 -38 -29 6 42 74 79
76 178 130 280 153 67 15 335 16 359 1z m101 -64 c-16 -20 -30 -42 -30 -48 0
-15 -35 -46 -43 -37 -13 12 -7 79 9 101 20 29 54 42 77 30 16 -8 15 -12 -13
-46z m-1826 -40 c11 -13 39 -33 61 -44 l40 -21 -38 42 c-21 24 -37 45 -34 47
2 2 24 -5 48 -15 46 -21 112 -32 280 -50 52 -6 111 -16 130 -23 l34 -13 -55
-6 c-30 -4 -68 -13 -85 -20 -29 -12 -27 -13 45 -19 44 -4 90 -14 110 -25 l35
-19 -53 -8 c-29 -4 -65 -14 -79 -21 -25 -14 -24 -14 30 -20 30 -3 66 -11 79
-18 23 -13 22 -13 -15 -20 -49 -8 -73 -29 -33 -29 34 0 69 -18 61 -31 -4 -5
-22 -9 -41 -9 -47 0 -107 -32 -170 -92 -46 -43 -57 -49 -81 -43 -26 6 -113 52
-113 59 0 2 24 15 53 29 54 27 116 82 104 93 -4 4 -33 -5 -64 -19 -91 -40
-129 -44 -160 -16 -23 23 -63 89 -63 106 0 4 29 7 63 5 42 -2 77 2 102 12 21
9 36 18 34 21 -3 2 -36 9 -74 15 -140 22 -195 70 -195 166 1 41 2 46 12 29 6
-11 20 -31 32 -43z m4735 -29 c5 -4 -6 -73 -130 -833 -44 -267 -86 -530 -95
-585 -33 -210 -104 -641 -109 -663 -5 -20 -10 -23 -38 -17 -18 4 -36 11 -41
15 -5 5 5 90 23 197 17 103 62 382 101 618 95 585 201 1224 207 1257 5 24 8
26 42 21 20 -3 38 -8 40 -10z m-2781 -28 c1 -11 -2 -26 -7 -34 -7 -11 -15 -10
-45 8 -40 25 -45 37 -18 44 36 10 67 2 70 -18z m-361 -31 c43 -8 117 -21 166
-29 50 -8 102 -23 121 -34 35 -22 116 -105 116 -119 0 -4 -44 -53 -97 -108
-213 -217 -431 -341 -701 -399 -103 -22 -178 -65 -205 -118 -15 -29 -19 -57
-18 -122 l0 -84 -36 -31 -36 -32 -34 73 c-66 141 -75 175 -80 314 -6 148 5
206 61 328 62 135 163 232 321 309 138 66 270 83 422 52z m568 -174 c17 -27
-256 -283 -410 -386 -131 -87 -295 -167 -393 -192 -102 -26 -105 -30 -100
-129 l4 -83 -38 -10 c-21 -6 -55 -27 -77 -48 -35 -34 -40 -43 -46 -105 -10
-88 -33 -122 -115 -163 -75 -38 -95 -42 -85 -16 4 9 9 45 12 79 5 53 11 68 37
96 17 18 28 29 24 23 -26 -34 34 -13 67 24 10 11 24 20 32 20 19 0 16 16 -8
49 -29 40 -37 136 -15 180 21 40 53 54 171 76 289 53 533 201 808 491 95 100
118 116 132 94z m-1351 -56 c19 -7 20 -33 2 -57 -16 -20 -36 -15 -54 14 -21
34 10 59 52 43z m1424 -164 c17 -63 42 -169 56 -235 47 -223 100 -436 142
-563 17 -51 17 -55 4 -47 -6 4 -24 34 -41 68 -48 95 -172 238 -233 269 -57 29
-90 38 -186 48 -135 15 -326 -6 -499 -57 -95 -27 -139 -27 -76 1 136 59 412
101 570 86 197 -18 275 -61 339 -188 13 -26 33 -58 45 -72 l21 -25 -6 30 c-10
50 -59 149 -93 188 -73 82 -234 124 -441 113 -69 -3 -147 -11 -175 -16 -68
-13 -253 -68 -287 -85 -26 -13 -28 -13 -34 10 -9 38 -3 45 76 76 276 110 496
256 705 468 46 47 72 67 76 58 4 -6 21 -64 37 -127z m-1658 54 c0 -3 -16 -24
-35 -46 -81 -95 -86 -239 -16 -438 44 -124 46 -115 15 69 -8 46 -14 105 -14
130 0 88 48 201 85 201 11 0 9 -9 -8 -37 -20 -34 -22 -51 -21 -163 0 -69 4
-182 8 -252 6 -89 5 -140 -3 -175 -16 -63 -61 -185 -74 -198 -7 -7 -8 -7 -4 0
3 6 11 48 17 94 14 104 1 201 -45 326 -53 145 -59 167 -59 235 -1 78 30 152
92 218 35 37 62 53 62 36z m-1049 -304 c164 -52 251 -173 392 -545 172 -452
288 -643 487 -797 32 -25 34 -29 19 -43 -9 -9 -46 -22 -83 -30 -37 -8 -90 -28
-118 -45 -28 -17 -57 -29 -64 -26 -37 14 -170 262 -309 576 -152 345 -254 520
-336 580 -56 40 -130 56 -198 41 -99 -21 -160 -59 -267 -166 -116 -115 -186
-228 -254 -407 -100 -265 -146 -542 -180 -1078 -17 -264 -42 -375 -105 -475
l-26 -40 6 165 c2 91 7 293 11 450 10 538 61 850 190 1175 129 323 289 528
488 625 126 61 238 74 347 40z m3941 9 c29 -6 90 -29 136 -51 239 -113 447
-438 562 -872 46 -176 70 -312 70 -400 l0 -81 -54 -47 -54 -47 -17 117 c-34
227 -96 449 -170 608 -157 338 -407 525 -617 462 -112 -33 -221 -203 -403
-623 -123 -287 -260 -519 -346 -588 -36 -28 -37 -29 -64 -11 -15 10 -68 34
-118 54 -50 20 -92 41 -94 47 -2 5 31 41 74 79 215 193 337 396 504 842 74
197 114 280 179 365 96 128 244 181 412 146z m-1376 -313 c27 -9 67 -30 87
-48 l36 -33 -16 -65 -17 -65 38 -147 c21 -80 35 -151 32 -156 -3 -5 -43 -8
-88 -7 -68 3 -84 6 -86 20 -2 9 4 22 14 29 19 15 11 36 -13 36 -30 0 -53 -31
-53 -70 0 -35 -2 -38 -42 -50 -24 -6 -73 -30 -109 -51 l-66 -40 -79 52 c-137
90 -157 115 -174 225 -6 37 -15 73 -20 79 -11 13 13 84 42 127 21 30 145 121
223 163 47 25 56 27 145 22 52 -3 118 -12 146 -21z m-431 -5 c-3 -5 -27 -17
-53 -26 -26 -9 -55 -21 -64 -26 -12 -6 -24 -2 -40 11 l-23 19 31 1 c18 0 47 7
65 15 38 16 93 20 84 6z m-203 -80 c18 -15 39 -26 46 -24 18 7 15 -11 -10 -53
l-21 -36 -29 55 c-15 31 -32 58 -38 62 -5 3 -10 10 -10 16 0 18 30 9 62 -20z
m-2028 -3 c-3 -33 -108 -209 -173 -291 -57 -71 -110 -112 -125 -96 -2 2 2 51
10 109 7 58 14 126 14 152 0 57 18 77 105 119 48 24 71 29 115 27 45 -3 55 -6
54 -20z m4081 -2 c28 -12 65 -35 83 -50 31 -27 32 -31 32 -99 1 -62 13 -186
22 -227 2 -7 -3 -15 -10 -17 -19 -7 -123 102 -176 184 -46 73 -116 206 -116
223 0 20 113 11 165 -14z m-2180 -20 c48 -21 93 -121 75 -171 -5 -15 -10 -9
-24 30 -28 81 -49 117 -73 128 -32 14 -72 -9 -90 -50 -11 -28 -11 -38 4 -75
30 -77 84 -150 99 -135 4 3 -1 25 -10 47 -20 51 -12 156 9 126 7 -9 15 -39 19
-66 4 -27 11 -52 16 -55 6 -4 5 -14 -3 -26 -10 -16 -9 -21 1 -28 10 -6 8 -14
-8 -34 -12 -15 -28 -27 -35 -27 -15 0 -82 84 -108 135 -16 32 -21 66 -19 128
3 74 67 106 147 73z m-1786 -77 c58 -82 60 -69 -31 -196 -61 -85 -113 -136
-132 -130 -6 2 -15 38 -20 79 l-8 75 61 110 c34 59 61 114 61 121 0 27 22 8
69 -59z m3770 24 c13 -27 38 -73 57 -104 31 -51 34 -64 34 -132 0 -83 -6 -107
-25 -107 -35 0 -203 226 -191 257 9 23 88 133 95 133 4 0 17 -21 30 -47z
m-2032 -45 c-3 -7 -5 -2 -5 12 0 14 2 19 5 13 2 -7 2 -19 0 -25z m-27 -43 l-7
-50 -2 46 c0 25 2 49 6 52 10 11 11 5 3 -48z m-2190 -109 c-6 -44 -31 -155
-55 -246 -23 -91 -48 -187 -54 -215 -21 -97 -42 -406 -61 -865 -12 -301 -23
-419 -56 -596 -43 -237 -125 -464 -199 -552 -42 -51 -49 -42 -41 56 4 67 7
390 4 647 0 11 12 51 26 88 37 96 53 205 71 477 42 620 131 974 316 1246 61
91 67 86 49 -40z m4708 21 c27 -40 63 -99 79 -132 73 -145 156 -433 188 -650
9 -60 20 -133 25 -162 7 -41 6 -61 -6 -90 -9 -20 -13 -49 -10 -64 3 -16 -1
-43 -8 -61 -10 -24 -13 -68 -10 -155 3 -125 9 -145 54 -203 18 -24 18 -29 5
-105 -7 -44 -21 -129 -30 -190 -20 -138 -25 -150 -74 -175 l-41 -20 -4 22
c-30 140 -45 319 -61 719 -22 555 -39 707 -116 1013 -47 186 -73 352 -53 335
6 -5 34 -42 62 -82z m-2281 37 c-9 -9 -28 6 -21 18 4 6 10 6 17 -1 6 -6 8 -13
4 -17z m3 -24 c0 -5 -7 -10 -16 -10 -8 0 -22 -17 -31 -37 -8 -21 -23 -49 -33
-63 -38 -54 -81 -174 -75 -207 3 -18 10 -35 16 -38 13 -8 39 56 39 97 0 21 17
60 45 108 25 41 45 78 45 82 0 4 5 8 10 8 16 0 11 -48 -9 -88 -10 -20 -22 -56
-26 -79 -4 -24 -18 -57 -31 -75 -13 -18 -31 -47 -39 -65 -8 -17 -20 -33 -27
-35 -8 -3 -13 -22 -12 -51 1 -41 -1 -45 -15 -35 -36 27 -41 42 -41 135 0 86 2
94 28 125 15 18 41 60 56 93 36 75 85 145 103 145 7 0 13 -4 13 -10z m-1805
-113 l48 -89 -24 -49 c-24 -53 -112 -143 -132 -136 -20 6 -35 77 -36 168 -1
83 0 86 40 148 22 35 45 59 49 55 4 -5 29 -49 55 -97z m3498 41 l44 -63 -7
-100 c-6 -101 -20 -145 -44 -145 -38 0 -126 117 -126 167 0 19 78 203 86 203
2 0 23 -28 47 -62z m-2063 33 c0 -5 -20 -40 -45 -77 -36 -53 -45 -75 -45 -109
0 -46 20 -103 52 -148 24 -33 18 -55 -37 -141 -26 -41 -40 -55 -45 -46 -9 14
-3 33 29 93 21 41 19 69 -5 60 -8 -3 -14 -9 -14 -13 0 -5 -16 -28 -36 -51 -34
-41 -36 -47 -31 -100 3 -31 1 -62 -3 -69 -14 -23 -33 31 -31 90 1 50 5 58 41
92 45 42 55 72 46 131 -24 145 -21 156 59 245 45 50 65 63 65 43z m-166 -98
c-25 -48 -27 -73 -7 -150 10 -41 -15 -24 -32 22 -16 41 -16 53 1 120 3 12 -4
6 -17 -14 -21 -31 -22 -37 -11 -90 18 -84 15 -116 -12 -148 -29 -35 -49 -73
-39 -73 4 0 9 -18 11 -40 1 -22 0 -40 -3 -40 -11 0 -33 65 -30 90 2 14 4 30 4
37 1 6 13 26 28 43 l26 32 -21 63 c-37 107 -28 129 71 171 28 12 53 22 54 23
1 0 -9 -20 -23 -46z m243 30 c2 -6 -12 -28 -32 -48 -33 -33 -36 -40 -30 -73 3
-20 15 -54 26 -75 18 -36 18 -57 0 -57 -17 0 -82 101 -83 129 -2 66 102 175
119 124z m-1926 -119 c-18 -69 -75 -184 -125 -252 -47 -64 -83 -89 -110 -79
-13 5 -13 12 -4 37 6 17 23 93 38 168 l27 137 37 -3 c43 -4 92 24 122 70 l19
28 3 -32 c2 -17 -1 -51 -7 -74z m4342 1 c18 -4 39 -5 47 -3 10 2 20 -33 41
-142 16 -80 31 -155 34 -167 4 -18 1 -23 -15 -23 -34 0 -96 66 -134 143 -34
69 -106 265 -106 289 0 6 23 -12 50 -40 33 -33 62 -53 83 -57z m-2403 20 c0
-8 -5 -15 -11 -15 -8 0 -9 -12 -5 -32 5 -32 5 -33 -8 -9 -10 19 -11 31 -3 48
12 26 27 31 27 8z m351 -43 c11 -14 8 -89 -5 -110 -14 -22 -144 -83 -149 -69
-3 7 -9 1 -15 -13 -9 -21 -11 -22 -11 -5 -1 10 16 37 38 60 50 52 91 127 91
168 l1 32 19 -25 c11 -14 25 -31 31 -38z m1773 17 c23 -13 48 -19 72 -17 l36
3 24 -75 c19 -59 24 -92 22 -159 -2 -60 -7 -86 -16 -89 -22 -7 -116 99 -147
164 -26 54 -49 194 -32 194 3 0 22 -9 41 -21z m-3864 -57 c0 -56 -5 -80 -30
-129 -37 -74 -108 -153 -138 -153 -21 0 -22 4 -22 88 0 60 7 109 21 158 l21
72 37 -5 c25 -3 45 2 66 16 17 11 33 20 38 20 4 1 7 -30 7 -67z m2675 18 c3
-6 -2 -13 -12 -17 -10 -3 -26 -13 -36 -22 -10 -9 -38 -15 -65 -16 -44 0 -48
-3 -84 -50 -45 -60 -68 -122 -68 -186 0 -38 -3 -47 -14 -43 -25 10 -36 62 -29
141 6 71 8 77 45 112 47 43 81 60 128 61 19 1 51 7 70 14 45 17 57 18 65 6z
m-1348 -57 c-3 -10 -5 -2 -5 17 0 19 2 27 5 18 2 -10 2 -26 0 -35z m852 21
c33 -42 27 -72 -26 -126 -44 -45 -47 -51 -51 -110 -3 -55 0 -70 27 -121 30
-58 49 -85 105 -152 26 -32 30 -65 7 -65 -17 0 -98 98 -120 145 -12 25 -25 45
-29 45 -15 0 -44 74 -49 126 -7 61 12 105 65 150 33 29 37 37 37 83 0 28 3 51
7 51 4 0 16 -12 27 -26z m545 -15 c17 -41 14 -103 -5 -115 -8 -5 -14 53 -9
104 1 13 -4 30 -10 38 -8 8 -8 14 -2 14 5 0 17 -18 26 -41z m-2408 -74 c-8
-42 -50 -128 -83 -172 -30 -39 -170 -163 -185 -163 -5 0 -7 64 -6 143 l3 142
46 -3 c28 -2 58 2 75 11 32 17 81 67 108 111 l18 29 15 -34 c8 -19 12 -47 9
-64z m3255 36 c34 -51 91 -91 128 -91 12 0 35 7 51 15 l30 16 0 -68 c0 -38 3
-105 7 -150 6 -79 5 -83 -15 -83 -29 0 -163 129 -194 186 -47 89 -70 166 -59
197 6 15 12 27 14 27 2 0 19 -22 38 -49z m-1301 -28 c0 -42 -20 -81 -61 -122
-29 -30 -31 -36 -27 -86 3 -30 3 -55 1 -55 -2 0 -12 15 -23 33 -27 43 -26 98
1 123 48 42 79 96 79 138 1 38 2 40 15 22 8 -11 15 -35 15 -53z m-770 19 c0
-4 -16 -24 -36 -43 -33 -31 -36 -32 -29 -10 10 34 65 79 65 53z m1164 -7 c-6
-15 -58 -21 -88 -9 -29 11 -5 24 44 24 40 0 48 -3 44 -15z m-363 -160 c-17
-37 -31 -76 -31 -86 0 -24 21 -69 32 -69 4 0 7 -5 6 -10 -3 -11 32 -34 65 -44
12 -4 17 -16 17 -40 0 -29 -4 -36 -32 -45 -28 -10 -35 -9 -45 5 -7 9 -10 20
-8 24 3 4 -11 20 -30 34 -53 41 -68 78 -60 145 6 46 14 63 45 98 21 22 45 61
52 85 l13 43 3 -37 c2 -24 -7 -58 -27 -103z m-283 69 c-29 -49 -29 -128 0
-201 11 -29 17 -53 12 -53 -18 0 -89 80 -95 108 -13 60 27 151 78 179 30 16
31 11 5 -33z m597 31 c22 -4 47 -9 55 -11 28 -9 -11 -22 -87 -30 -63 -5 -76
-10 -95 -33 l-21 -26 7 30 c10 42 55 87 81 81 11 -2 38 -8 60 -11z m-866 -26
c6 -16 30 -53 55 -82 24 -29 51 -70 60 -91 34 -82 127 -166 183 -166 10 0 40
-26 67 -57 50 -61 121 -123 140 -123 6 0 27 8 46 18 l35 17 20 -30 c27 -38
104 -68 168 -63 26 2 47 1 47 -2 0 -13 -78 -80 -115 -98 -157 -77 -306 -84
-537 -26 -136 34 -222 66 -380 141 l-136 65 1 78 2 78 51 16 c70 22 120 78
185 207 81 162 89 171 108 118z m-1340 -87 l43 -93 -26 -90 c-30 -104 -54
-155 -97 -203 -31 -36 -97 -82 -105 -74 -2 3 5 43 16 89 11 46 23 131 26 189
6 93 10 110 35 151 16 25 29 48 29 51 0 10 31 80 34 77 2 -2 22 -46 45 -97z
m3085 46 c10 -29 28 -68 41 -87 18 -30 23 -56 28 -146 3 -60 15 -143 25 -182
20 -72 20 -73 1 -73 -56 0 -159 157 -194 295 l-15 60 42 93 c24 50 45 92 48
92 3 0 14 -23 24 -52z m-923 -18 c10 -6 19 -15 19 -20 0 -5 16 -36 35 -68 34
-58 34 -61 21 -98 l-14 -39 -12 30 c-14 36 -65 91 -102 111 -36 18 -46 53 -22
71 10 7 24 11 31 9 7 -3 13 -1 13 4 0 13 7 13 31 0z m142 -76 c40 -61 41 -81
9 -176 -38 -107 -49 -128 -69 -128 -12 0 -14 7 -9 31 3 17 6 50 7 73 0 34 2
38 11 24 11 -14 14 -14 31 9 25 32 19 95 -19 177 -22 47 -24 60 -13 67 10 6
16 2 20 -15 4 -12 18 -40 32 -62z m1493 -24 c19 -7 46 -9 60 -6 19 5 24 2 24
-11 0 -10 4 -58 10 -108 5 -49 14 -196 20 -325 19 -430 31 -593 56 -788 13
-106 22 -198 19 -203 -9 -14 -65 -40 -74 -35 -16 10 -71 133 -105 236 -50 150
-75 335 -86 640 -5 140 -16 320 -25 399 -8 79 -15 179 -15 223 l0 81 40 -46
c23 -25 56 -51 76 -57z m-4491 -269 c-8 -85 -15 -216 -15 -290 0 -363 -101
-808 -210 -922 -36 -38 -80 -52 -80 -26 0 6 9 57 19 112 36 184 54 393 71 840
9 232 23 434 36 513 5 31 7 32 51 32 41 0 50 4 92 48 l46 47 3 -100 c1 -55 -4
-169 -13 -254z m260 287 c-15 -157 -55 -275 -120 -347 -42 -46 -81 -56 -72
-18 3 12 11 91 18 175 l12 152 31 0 c24 0 41 11 81 54 27 30 51 55 53 55 2 1
0 -32 -3 -71z m4005 -34 l37 -6 12 -147 c7 -80 15 -156 18 -168 8 -36 -36 -30
-74 10 -61 64 -108 197 -119 342 l-7 80 47 -53 c37 -40 57 -53 86 -58z m-1523
32 c-9 -26 -27 -15 -27 16 1 31 1 32 15 13 9 -10 14 -24 12 -29z m-23 -26 c40
0 93 -34 123 -79 38 -56 27 -108 -27 -136 -36 -18 -39 -8 -15 48 19 45 19 77
2 77 -19 0 -99 42 -140 73 -28 21 -33 31 -29 53 l5 26 24 -31 c19 -23 32 -31
57 -31z m1304 -151 c15 -6 37 -11 50 -11 l22 0 -6 -172 c-4 -94 -8 -173 -10
-175 -10 -11 -50 42 -85 114 -40 83 -71 188 -84 285 l-8 55 47 -43 c25 -23 58
-47 74 -53z m-3553 -46 c-26 -141 -109 -313 -150 -313 -12 0 -15 20 -15 118 0
64 -3 140 -6 168 l-6 51 39 6 c26 5 56 22 93 53 50 43 55 45 58 26 2 -12 -4
-61 -13 -109z m374 7 l52 -92 -34 -38 c-19 -20 -42 -62 -52 -91 -11 -34 -33
-70 -58 -96 -22 -24 -42 -41 -44 -39 -2 2 1 25 7 51 8 36 8 68 -1 122 -11 71
-11 75 14 126 15 29 32 75 39 104 7 28 15 50 18 48 4 -2 30 -45 59 -95z m1863
78 l39 -22 -6 -58 c-6 -46 -3 -64 9 -83 18 -28 41 -32 53 -11 7 13 12 12 32
-3 31 -23 20 -41 -25 -41 -45 0 -100 23 -113 48 -13 25 -10 73 7 90 19 21 14
42 -19 73 -37 35 -30 37 23 7z m928 -43 c7 -22 22 -58 32 -79 19 -37 19 -45 7
-134 l-13 -94 -20 29 c-10 15 -48 56 -84 91 -58 57 -63 65 -49 80 8 9 33 50
57 90 24 40 46 69 50 65 4 -4 13 -26 20 -48z m-2124 0 c12 -30 12 -40 1 -67
-18 -44 -38 -59 -86 -65 -49 -7 -91 16 -91 50 1 21 1 21 15 3 13 -17 14 -15
10 20 -2 22 -2 30 1 19 4 -11 11 -26 16 -32 13 -16 70 -17 86 -1 15 15 16 74
2 83 -14 8 -3 25 16 25 8 0 22 -16 30 -35z m-86 -2 c0 -10 -4 -24 -9 -32 -7
-11 -11 -10 -19 5 -5 11 -7 25 -5 32 7 18 33 14 33 -5z m175 -3 c24 -26 16
-104 -15 -155 -47 -75 -192 -111 -268 -65 -44 27 -72 76 -72 126 0 59 25 77
26 20 2 -56 26 -90 77 -111 108 -43 239 51 223 161 -6 48 1 55 29 24z m3574
-54 c54 -28 205 -165 226 -206 32 -61 66 -344 66 -549 1 -212 -4 -225 -249
-621 -137 -221 -192 -303 -199 -297 -5 6 3 67 53 379 19 120 34 221 34 225 0
4 6 -2 14 -12 12 -17 14 -14 25 34 6 28 11 59 11 68 0 13 2 13 16 2 36 -30 87
-47 105 -36 16 10 15 12 -12 26 -74 36 -109 129 -109 298 l0 102 -92 30 c-51
16 -96 27 -100 25 -5 -3 -8 -15 -8 -27 -1 -12 -7 -35 -14 -52 l-13 -30 -16 32
c-32 62 -12 129 48 158 39 18 71 18 209 -1 70 -10 57 15 -25 45 -78 28 -152
31 -197 7 -18 -9 -37 -14 -41 -11 -28 17 39 99 90 110 19 4 68 -2 129 -15 103
-24 153 -21 116 5 -10 8 -55 26 -98 41 -80 26 -141 29 -207 8 -21 -6 -23 -5
-16 17 4 13 19 37 34 52 43 44 91 46 204 7 94 -32 137 -36 144 -13 3 7 -13 21
-34 32 -21 12 -63 39 -94 62 l-57 40 -53 -14 c-30 -8 -62 -18 -71 -22 -49 -20
10 65 71 102 45 29 51 28 110 -1z m-4009 -21 c0 -11 -10 -15 -37 -14 l-38 1
30 13 c39 18 45 18 45 0z m1941 -34 c21 -17 24 -28 24 -88 0 -64 -4 -78 -58
-187 -32 -65 -55 -121 -52 -124 8 -8 74 68 110 128 44 73 65 139 65 205 0 30
4 55 8 55 4 0 29 -13 55 -30 63 -40 62 -61 -8 -179 -31 -52 -53 -96 -50 -100
10 -9 149 143 175 192 17 33 31 47 46 47 29 0 103 -49 148 -99 l38 -43 -38
-18 c-42 -19 -83 -68 -231 -280 -115 -164 -255 -306 -343 -348 -118 -57 -206
-75 -380 -75 -85 0 -183 5 -218 12 -132 26 -287 89 -408 167 -29 18 -66 40
-84 49 l-33 17 21 -30 c12 -16 50 -55 84 -87 56 -52 60 -58 33 -51 -17 4 -59
21 -95 38 -85 41 -221 175 -280 278 -48 83 -164 340 -156 347 9 9 24 -7 89
-99 72 -101 163 -208 178 -208 19 0 7 26 -49 109 -77 114 -132 206 -132 222 0
7 69 -55 153 -137 224 -221 462 -401 636 -481 124 -57 291 -89 331 -63 12 8 9
10 -14 10 -184 1 -589 252 -888 551 -155 154 -172 199 -26 69 120 -108 209
-170 337 -234 201 -101 346 -140 526 -141 91 0 133 4 172 18 74 26 72 34 -5
26 -75 -9 -213 3 -330 27 -156 32 -347 121 -517 239 -87 60 -130 98 -94 82
229 -101 445 -157 611 -157 170 0 334 57 433 151 50 47 55 50 55 28 0 -37 -55
-124 -105 -166 -67 -56 -141 -91 -222 -105 -40 -6 -73 -15 -73 -19 0 -13 87
-22 137 -14 63 9 117 31 182 73 107 71 170 202 156 328 -6 60 -5 68 16 90 27
29 40 30 70 5z m-1943 -44 c7 -6 17 -18 22 -28 9 -16 2 -16 -93 -12 -75 4
-113 1 -144 -9 -40 -15 -41 -14 -30 4 7 10 33 29 60 42 40 20 57 23 110 19 34
-3 68 -10 75 -16z m-938 -377 c-24 -265 -70 -426 -160 -561 -34 -53 -70 -74
-93 -56 -14 11 -13 24 13 124 35 134 68 411 72 610 3 131 5 143 21 143 37 0
91 35 121 78 l31 44 3 -129 c2 -70 -2 -184 -8 -253z m3996 308 c26 -28 85 -51
108 -42 10 4 14 -41 19 -213 6 -223 22 -389 56 -551 15 -76 16 -94 5 -103 -56
-46 -159 142 -203 372 -22 114 -37 272 -46 479 l-6 135 21 -25 c12 -14 32 -37
46 -52z m-436 -3 c13 -14 38 -29 54 -33 l31 -8 2 -112 c2 -108 2 -112 -17
-102 -32 17 -87 93 -99 135 -13 47 -15 145 -3 145 5 0 19 -11 32 -25z m-3141
-92 c-10 -65 -40 -133 -79 -177 -18 -20 -35 -36 -39 -36 -3 0 -5 56 -3 124 l3
123 39 18 c22 10 47 27 57 37 17 20 18 19 24 -10 3 -17 3 -52 -2 -79z m546 36
c39 -11 100 -28 137 -37 37 -10 72 -22 76 -27 5 -6 26 -50 47 -100 125 -300
256 -463 451 -561 90 -46 99 -48 182 -50 56 -1 111 -9 156 -23 37 -11 76 -21
86 -21 47 0 60 -51 39 -150 -14 -65 -75 -132 -134 -149 -151 -43 -540 -52
-655 -16 -79 25 -169 119 -234 245 -27 52 -60 110 -73 127 -47 65 -148 102
-233 88 -47 -8 -54 -25 -10 -25 42 0 90 -22 123 -57 l28 -30 -45 -164 c-75
-275 -115 -371 -217 -519 -86 -124 -145 -187 -162 -175 -8 6 -33 24 -57 42
-51 39 -133 71 -218 86 -88 14 -102 -3 -24 -31 79 -29 167 -88 224 -150 49
-52 128 -167 128 -185 0 -21 50 -113 77 -143 15 -17 59 -57 96 -89 77 -66 303
-329 352 -410 25 -43 38 -86 63 -212 38 -187 38 -196 11 -293 -39 -143 -81
-170 -60 -39 21 126 6 250 -40 341 -29 57 -40 36 -23 -47 24 -122 9 -424 -23
-456 -26 -26 -33 4 -33 154 0 157 -9 211 -47 298 -20 44 -39 66 -49 56 -3 -2
7 -49 22 -103 24 -93 25 -109 20 -248 -6 -155 -16 -191 -44 -163 -9 10 -17 55
-24 138 -13 180 -49 312 -92 348 -27 22 -29 7 -8 -66 41 -138 63 -314 45 -347
-9 -16 -10 -16 -24 1 -9 10 -28 65 -43 123 -28 110 -68 201 -135 309 -51 80
-71 151 -78 267 -3 51 -9 98 -13 104 -12 20 -30 1 -30 -31 0 -34 3 -33 -46
-13 -22 9 -70 25 -109 36 -38 10 -113 40 -165 65 -116 56 -203 138 -273 259
-75 129 -78 108 103 681 63 200 138 361 222 477 l28 39 1 -39 c1 -79 14 -82
33 -8 9 38 26 84 37 103 12 19 33 101 50 186 44 229 84 333 173 452 80 106
194 173 296 172 25 0 77 -9 115 -20z m-750 -246 c-28 -125 -88 -254 -144 -308
-17 -15 -33 -26 -36 -23 -3 3 2 38 10 78 19 88 36 284 28 323 -4 22 -2 27 15
27 26 0 84 50 114 98 l23 37 3 -80 c2 -48 -4 -109 -13 -152z m3573 145 c19
-20 47 -40 62 -43 l27 -6 6 -127 c4 -70 15 -166 25 -214 16 -80 17 -88 2 -88
-22 0 -73 56 -98 105 -50 103 -92 278 -92 388 0 70 0 71 16 47 10 -14 33 -42
52 -62z m-311 -69 c95 -74 163 -199 184 -342 6 -40 13 -81 15 -92 2 -11 26
-38 54 -59 92 -70 207 -224 275 -369 77 -164 87 -205 80 -342 -4 -93 -2 -127
9 -150 l14 -30 1 35 c3 111 61 251 124 302 87 70 351 217 365 204 5 -5 -120
-754 -134 -807 -4 -16 -192 -162 -241 -187 -54 -29 -120 -1 -230 100 -32 29
-101 84 -153 122 -213 156 -244 180 -302 239 -109 112 -287 412 -260 439 17
17 42 -5 175 -146 71 -75 154 -156 185 -180 70 -53 161 -110 168 -104 2 3 -35
39 -83 80 -181 155 -263 250 -331 383 -77 152 -81 251 -19 420 9 22 13 42 11
44 -3 3 -18 -10 -34 -27 -31 -35 -46 -41 -36 -16 3 8 2 13 -3 10 -20 -13 -60
-98 -101 -214 -23 -67 -57 -146 -74 -175 -34 -56 -102 -110 -164 -127 -53 -14
-207 -12 -320 5 -231 35 -288 78 -299 230 l-6 72 109 6 c195 11 334 60 460
161 75 60 148 146 311 366 100 136 151 190 180 190 9 0 40 -19 70 -41z m-3081
-96 c-30 -62 -70 -202 -91 -324 -15 -86 -53 -181 -61 -154 -2 6 -10 67 -18
137 l-15 128 24 49 c14 27 25 56 25 65 0 9 15 22 33 30 19 7 54 37 78 65 24
28 45 51 47 51 1 0 -8 -21 -22 -47z m4443 -267 c8 -10 1 -72 -23 -222 -35
-208 -76 -463 -206 -1274 -37 -234 -80 -495 -95 -580 -15 -85 -37 -222 -50
-303 -13 -82 -26 -151 -29 -154 -5 -5 -29 9 -69 40 -17 14 -16 21 7 143 46
235 76 410 126 731 58 371 139 869 210 1290 28 164 53 312 55 330 5 30 7 31
35 22 16 -6 34 -16 39 -23z m-977 -100 c29 -14 60 -26 70 -26 16 0 18 -5 12
-37 -14 -79 -16 -79 -68 -13 -26 33 -61 70 -76 82 -16 11 -31 32 -35 47 -3 14
-8 35 -12 46 -3 11 9 -1 26 -27 22 -32 48 -55 83 -72z m-3697 -28 c4 -46 10
-100 15 -120 7 -33 3 -44 -27 -90 -19 -29 -52 -88 -74 -132 -22 -43 -42 -76
-44 -75 -8 9 -57 368 -52 382 3 9 23 21 44 26 22 6 55 27 78 51 21 22 42 40
46 40 4 0 10 -37 14 -82z m3879 -188 c48 -67 90 -93 138 -85 36 5 37 4 29 -17
-5 -13 -16 -67 -26 -120 -9 -54 -22 -98 -27 -98 -5 0 -14 14 -20 31 -15 44
-93 198 -117 234 -18 25 -30 105 -17 105 2 0 20 -23 40 -50z m-4090 -170 l27
-191 -34 -107 c-19 -59 -47 -151 -63 -204 -15 -54 -29 -96 -31 -95 -1 2 -16
83 -32 182 -32 188 -75 425 -87 469 -6 25 -4 26 32 26 48 0 96 28 126 75 13
19 26 35 29 35 3 0 18 -86 33 -190z m2303 174 c30 -6 30 -7 37 -82 7 -97 44
-174 101 -214 112 -78 539 -126 659 -74 44 20 51 17 42 -17 -16 -66 -110 -153
-177 -163 -21 -4 -36 -10 -33 -15 8 -14 67 -11 114 6 58 21 59 20 54 -22 -12
-84 -47 -262 -65 -328 -33 -122 -51 -237 -44 -285 3 -25 22 -109 41 -188 19
-78 34 -158 32 -178 -3 -34 -6 -36 -69 -58 -36 -13 -94 -42 -128 -65 -34 -24
-64 -41 -66 -39 -2 1 3 28 11 58 15 57 19 180 6 180 -4 0 -15 -35 -25 -78 -9
-43 -32 -110 -51 -149 -34 -70 -34 -70 -107 -101 -209 -86 -349 -92 -600 -25
-138 36 -167 55 -206 133 -18 36 -45 100 -60 142 -29 83 -48 103 -37 41 13
-74 33 -168 39 -185 9 -24 4 -23 -58 9 -63 31 -138 53 -190 53 -24 0 -68 15
-125 44 -48 24 -107 50 -130 57 l-44 13 6 40 c3 23 8 74 12 114 4 39 10 72 14
72 3 0 17 -11 30 -25 23 -24 90 -50 112 -43 5 2 -7 15 -28 28 -50 32 -84 92
-84 149 0 33 -8 57 -34 95 -67 102 -115 225 -176 451 -24 88 -41 355 -23 355
22 0 65 -103 78 -185 19 -116 81 -299 113 -330 36 -36 64 -34 29 3 -25 26 -62
100 -54 108 2 3 24 -5 48 -16 24 -11 55 -20 68 -20 22 0 20 3 -15 29 -61 44
-92 86 -114 158 -11 36 -18 68 -15 71 2 3 14 -7 25 -21 33 -42 116 -67 218
-66 l87 0 -70 18 c-140 34 -250 122 -280 224 -15 52 -20 97 -9 97 3 0 30 -22
60 -49 100 -92 228 -119 476 -101 210 16 370 44 438 78 47 23 59 35 85 85 25
50 29 71 30 138 0 83 0 83 52 73z m-2548 -319 c12 -60 33 -189 47 -285 14 -96
31 -207 39 -245 11 -61 11 -80 -2 -135 -20 -86 -13 -159 19 -207 23 -36 27
-57 53 -347 l27 -308 -36 -77 c-61 -130 -68 -230 -24 -347 10 -29 32 -70 47
-91 l29 -40 -9 -124 c-11 -142 -23 -222 -46 -294 -23 -72 -43 -109 -54 -98 -9
9 -41 241 -53 388 -4 39 -15 221 -26 405 -36 593 -100 1241 -168 1705 l-18
121 38 27 c21 15 53 50 70 79 l32 52 7 -34 c4 -19 17 -84 28 -145z m4593 87
c-47 -37 -53 -36 -46 10 10 72 13 75 39 37 22 -31 22 -35 7 -47z m-4837 -94
c15 -69 54 -393 110 -928 42 -401 85 -1073 85 -1326 0 -194 -17 -417 -40 -534
-20 -97 -73 -221 -99 -229 -10 -2 -12 1 -8 12 7 19 -8 418 -23 622 -17 230
-49 533 -85 815 -18 146 -56 445 -84 665 -28 220 -58 433 -66 474 l-15 73 45
51 c55 63 95 138 130 245 28 84 41 99 50 60z m3789 -608 c5 -404 19 -720 31
-758 3 -7 -21 14 -53 47 -41 44 -65 61 -83 61 -23 0 -27 5 -32 44 -4 24 -22
91 -42 149 -28 85 -35 121 -35 184 0 101 15 224 42 338 19 82 22 87 30 60 5
-16 11 -154 14 -305 5 -278 16 -392 36 -372 7 7 12 128 13 331 2 177 6 333 9
349 3 15 10 90 17 167 10 135 22 186 39 169 4 -5 11 -214 14 -464z m-2383 3
c6 -184 8 -337 5 -340 -3 -4 -22 9 -41 27 l-35 34 0 125 c0 162 20 479 32 511
l10 25 9 -24 c5 -13 14 -174 20 -358z m2556 236 l50 -65 -23 -130 c-13 -71
-27 -169 -30 -219 -8 -108 -17 -133 -34 -90 -18 46 -40 201 -40 285 0 118 12
302 20 293 3 -4 29 -38 57 -74z m-2715 -221 c-2 -104 -8 -188 -12 -188 -3 0
-17 26 -29 58 -13 31 -37 82 -53 112 -28 53 -28 55 -11 76 10 12 38 47 63 77
24 31 45 55 46 54 1 -1 -1 -86 -4 -189z m272 120 c4 -13 11 -105 16 -205 8
-177 17 -269 28 -287 11 -19 21 24 28 119 6 84 9 95 17 70 11 -36 14 -327 3
-368 l-7 -29 -42 48 c-23 26 -55 64 -70 85 l-28 39 10 227 c12 248 19 323 31
323 4 0 11 -10 14 -22z m2643 -89 l22 -15 -19 -105 c-27 -153 -50 -361 -50
-462 0 -86 -1 -88 -22 -85 -18 2 -28 16 -45 68 -19 56 -22 87 -23 220 0 137
19 367 36 436 l6 24 37 -33 c20 -18 46 -39 58 -48z m166 -117 c40 -30 56 -49
53 -60 -16 -55 -54 -407 -65 -595 -4 -81 -13 -153 -18 -158 -46 -46 -113 132
-113 300 0 140 36 501 55 559 6 16 11 13 88 -46z m652 -124 c-2 -18 -26 -161
-51 -318 -66 -409 -71 -386 -18 85 23 199 29 232 46 248 28 23 30 22 23 -15z
m-505 13 c0 -9 103 -97 121 -103 7 -2 6 -37 -5 -108 -15 -106 -50 -441 -61
-602 -4 -49 -8 -88 -10 -88 -1 0 -32 14 -69 30 l-66 30 0 138 c0 180 15 384
41 557 12 77 23 143 26 148 6 10 23 9 23 -2z m356 -303 c-14 -117 -35 -321
-47 -453 -12 -132 -23 -242 -25 -244 -6 -7 -149 22 -156 33 -12 17 -9 117 7
291 21 217 56 528 61 536 2 3 15 4 29 1 32 -6 106 22 131 49 10 11 20 16 22
11 2 -6 -8 -106 -22 -224z m-907 122 c32 -13 33 -16 46 -125 16 -130 57 -200
127 -214 31 -6 33 -10 40 -59 18 -125 64 -204 126 -218 51 -11 58 -18 20 -22
-28 -2 -65 9 -140 42 -57 24 -130 51 -162 60 -32 8 -62 18 -66 23 -9 9 -47
361 -54 503 l-6 95 20 -36 c11 -20 32 -42 49 -49z m-3322 -190 c29 -23 32 -31
38 -102 l7 -77 -32 -16 c-18 -9 -52 -35 -75 -56 l-44 -40 -5 43 c-6 49 -36
370 -36 379 0 3 26 -19 58 -50 31 -31 71 -68 89 -81z m172 -89 c32 -17 33 -19
15 -28 -59 -31 -84 -23 -84 28 0 24 24 24 69 0z m1037 -81 c158 -79 419 -300
568 -480 34 -41 98 -127 141 -190 164 -238 316 -405 426 -467 188 -107 379
-78 606 92 83 62 159 133 150 141 -7 7 -53 -18 -180 -99 -228 -144 -405 -162
-572 -56 -72 45 -190 169 -265 278 -207 300 -316 426 -510 589 -180 152 -176
148 -110 122 156 -60 242 -123 455 -336 166 -166 218 -203 319 -230 70 -19
106 -17 168 6 51 19 135 79 112 80 -6 0 -33 -10 -60 -22 -35 -15 -69 -21 -121
-21 -117 0 -179 36 -335 196 -71 71 -128 133 -128 137 0 4 33 -1 73 -13 59
-16 104 -20 252 -21 162 -1 187 1 254 22 100 32 217 89 329 161 99 64 178 98
246 107 33 5 47 1 70 -17 28 -22 86 -96 86 -109 0 -4 -28 -13 -62 -20 -232
-45 -489 -316 -559 -588 -22 -86 -24 -193 -5 -237 l13 -30 8 50 c35 239 95
372 241 534 103 113 268 201 378 201 68 0 301 -73 290 -91 -3 -5 -14 -9 -25
-9 -39 0 -135 -41 -199 -85 -60 -40 -204 -175 -187 -175 3 0 48 27 99 61 180
118 259 148 408 156 81 4 119 2 160 -11 68 -20 163 -68 162 -81 -1 -5 -28 -13
-60 -17 -33 -3 -89 -20 -126 -37 -75 -34 -191 -108 -221 -141 -19 -21 -19 -21
7 -11 15 6 50 22 78 36 80 41 223 85 310 96 93 11 226 -2 298 -30 46 -17 182
-100 232 -140 l25 -20 -85 -1 c-109 0 -182 -19 -295 -75 -130 -64 -210 -130
-380 -314 -246 -268 -356 -342 -571 -383 -155 -30 -382 -32 -460 -5 -70 24
-207 104 -344 200 -175 123 -210 154 -210 187 0 35 -196 351 -263 423 l-47 52
102 -205 c57 -113 104 -209 106 -215 6 -20 -91 92 -169 195 -44 58 -135 164
-203 235 -67 72 -177 191 -243 265 -66 74 -130 144 -142 155 -13 11 -27 28
-33 38 -8 16 1 13 49 -12 91 -49 182 -122 282 -227 51 -53 95 -94 98 -91 3 3
-16 39 -42 79 -62 96 -222 253 -303 298 -105 58 -153 93 -174 128 -27 44 -11
42 88 -8z m-881 -51 c60 -15 90 -45 109 -111 8 -30 40 -91 69 -134 59 -87 95
-171 122 -282 21 -89 48 -131 101 -157 22 -11 53 -30 69 -42 23 -20 40 -23
107 -23 77 0 80 1 111 34 18 19 41 36 52 38 30 5 82 81 106 158 13 39 26 70
31 70 19 0 120 -46 188 -85 157 -92 299 -224 439 -408 90 -119 117 -144 291
-264 376 -261 497 -323 668 -343 84 -9 85 -10 133 -60 37 -39 55 -50 78 -50
30 0 41 13 21 25 -10 6 -54 85 -47 85 31 0 109 -36 134 -62 27 -29 53 -69 53
-81 0 -2 -38 -7 -83 -9 -51 -4 -99 -13 -123 -24 -77 -37 -154 -135 -169 -218
-4 -20 -9 -36 -11 -36 -3 0 -39 20 -82 45 -161 94 -274 131 -707 235 -623 149
-835 210 -1000 290 -139 68 -193 106 -404 285 -102 87 -196 162 -210 169 -24
10 -23 11 24 17 l50 6 -50 1 c-64 2 -180 27 -249 52 -77 29 -127 69 -195 155
-165 207 -185 331 -81 505 101 171 289 261 455 219z m881 -243 c45 -92 50
-121 18 -109 -21 8 -40 50 -58 127 -25 107 -19 104 40 -18z m3244 -515 c27
-10 80 -40 117 -67 89 -64 282 -233 316 -277 15 -20 54 -57 88 -83 85 -68 112
-116 117 -218 7 -140 -49 -368 -123 -502 -44 -78 -89 -215 -75 -224 14 -9 -14
-163 -75 -407 -100 -405 -185 -679 -401 -1286 -156 -439 -168 -484 -160 -602
3 -49 8 -99 12 -111 5 -18 -1 -22 -62 -33 -116 -21 -242 -84 -333 -166 l-40
-37 -58 45 c-132 102 -182 181 -151 240 7 14 57 71 110 126 54 55 108 122 121
148 33 66 73 218 91 343 18 121 56 550 56 627 l0 52 36 -24 c54 -37 97 -32
152 18 31 29 27 13 -18 -73 -23 -41 -32 -64 -21 -50 40 50 179 338 209 432 55
170 93 378 91 498 -1 62 -2 59 -25 -70 -68 -378 -187 -648 -299 -676 -66 -16
-140 66 -186 208 -22 66 -24 89 -23 243 1 139 5 184 22 247 32 117 73 213 155
360 70 124 107 209 107 243 0 20 -3 20 95 -19 105 -43 111 -29 21 44 -120 94
-259 149 -604 235 -180 45 -262 71 -262 84 1 8 46 68 95 123 l41 46 119 -40
c184 -61 465 -121 465 -99 0 6 -2 11 -5 11 -19 0 -241 66 -306 91 -86 33 -131
65 -155 110 -13 27 -13 33 4 72 44 97 223 272 345 338 173 94 295 119 397 80z
m-4254 -396 c110 -212 188 -314 278 -365 28 -17 55 -30 60 -30 5 0 -22 33 -60
73 -38 40 -86 104 -107 142 -35 64 -87 198 -87 224 0 24 19 9 52 -41 141 -212
400 -397 593 -423 l50 -6 -85 46 c-100 55 -176 111 -209 155 l-23 32 23 -7
c13 -4 74 -34 134 -66 155 -81 376 -164 599 -224 49 -13 91 -27 95 -30 3 -4
-55 -4 -129 0 -651 28 -830 38 -865 47 -91 23 -170 83 -224 167 -50 78 -158
337 -176 421 -11 53 5 30 81 -115z m-8 -285 c49 -100 136 -191 226 -235 84
-42 132 -48 491 -64 203 -10 595 -40 760 -60 l70 -8 -90 -2 c-96 -1 -526 -27
-637 -37 -37 -4 -65 -10 -63 -14 3 -5 62 -11 132 -14 313 -16 512 -29 852 -56
201 -17 374 -30 385 -31 21 0 21 0 1 -8 -11 -5 -85 -11 -165 -15 -257 -12
-565 -37 -575 -47 -5 -5 19 -9 65 -9 223 0 1022 -79 1047 -103 6 -7 -152 -18
-398 -27 -484 -19 -959 18 -1407 111 -616 128 -972 353 -876 555 17 36 118
134 137 134 7 0 27 -32 45 -70z m3008 -114 c22 -24 80 -164 89 -215 3 -14 -17
19 -43 74 -34 70 -62 112 -92 139 l-44 39 35 -6 c19 -4 44 -18 55 -31z m834
-206 c13 -8 10 -14 -15 -34 -87 -72 -439 -216 -475 -195 -8 4 -31 22 -50 38
l-35 29 30 7 c147 33 397 116 462 154 23 13 63 14 83 1z m-853 -28 c7 -5 37
-44 67 -87 l55 -80 -57 -28 c-31 -16 -74 -44 -94 -64 l-37 -36 -98 103 c-54
56 -99 106 -101 110 -5 12 60 58 104 74 42 16 141 20 161 8z m-3138 -106 c80
-62 165 -107 312 -165 155 -61 259 -92 464 -136 396 -85 670 -115 1135 -122
343 -6 585 4 838 33 102 11 137 12 148 3 23 -19 118 -167 198 -310 60 -107 87
-146 128 -181 87 -73 98 -78 160 -78 74 0 149 28 244 92 42 28 95 56 120 64
l44 13 0 -29 c0 -20 -9 -35 -30 -50 -42 -30 -240 -122 -333 -155 -43 -15 -76
-30 -73 -32 8 -9 242 29 349 57 107 27 107 27 107 6 0 -56 -317 -200 -616
-281 -130 -36 -148 -48 -59 -40 210 19 476 78 626 139 91 37 92 36 104 -27 l7
-37 -78 -36 c-806 -367 -2430 -402 -3334 -72 -259 94 -481 250 -519 364 -7 23
-15 111 -18 218 -5 180 5 806 14 806 2 0 30 -20 62 -44z m3991 -120 c-17 -30
-45 -67 -62 -81 -32 -27 -159 -95 -178 -95 -10 0 -94 81 -88 85 2 0 46 18 98
38 52 20 131 57 175 81 44 24 81 40 83 35 2 -5 -10 -33 -28 -63z m-1073 -58
c51 -51 93 -99 93 -108 -1 -8 -9 -29 -18 -47 l-17 -32 -86 103 c-78 95 -85
107 -81 140 2 20 7 36 10 36 4 0 48 -42 99 -92z m484 -26 l64 -68 -55 -27
c-30 -14 -74 -42 -97 -62 -23 -19 -43 -35 -46 -35 -8 0 -117 138 -117 148 0
21 137 111 171 112 9 0 45 -31 80 -68z m254 -115 c88 -100 110 -240 56 -350
-45 -93 -177 -203 -266 -222 -24 -5 -19 0 23 24 75 45 183 151 212 207 61 124
31 235 -109 404 l-46 55 42 -33 c24 -19 63 -57 88 -85z m-512 -95 l56 -68 -30
-59 c-16 -33 -34 -61 -39 -63 -5 -2 -26 30 -47 72 l-37 75 18 56 c9 30 19 55
20 55 2 0 29 -31 59 -68z m414 23 c30 -21 63 -98 63 -146 0 -46 -29 -103 -62
-120 -27 -15 -53 10 -88 86 -15 33 -37 69 -48 79 -22 19 -22 19 -22 -13 0 -46
33 -133 71 -186 24 -33 30 -48 21 -57 -21 -21 -46 2 -138 128 -12 16 -25 26
-29 22 -11 -11 22 -91 60 -149 49 -71 17 -65 -62 13 -34 34 -66 59 -70 55 -3
-4 10 -39 29 -77 34 -65 34 -69 13 -57 -42 22 -105 87 -105 109 0 40 73 152
141 219 100 98 176 129 226 94z m303 -13 c0 -15 -41 -53 -51 -47 -15 10 -10
33 9 44 21 13 42 14 42 3z m-60 -249 c-10 -16 -11 -15 -6 7 3 14 6 32 7 40 1
8 4 5 6 -7 2 -12 -1 -30 -7 -40z m-3787 -627 c78 -59 220 -133 363 -190 170
-67 514 -149 799 -190 454 -66 1107 -74 1580 -21 380 44 785 138 1029 241 44
19 82 34 84 34 1 0 2 -28 0 -62 l-3 -62 -65 -33 c-150 -75 -454 -182 -650
-228 -78 -18 -119 -34 -90 -35 8 0 76 7 150 16 170 19 349 54 513 99 148 41
137 39 137 21 0 -31 -245 -166 -408 -226 -80 -29 -91 -45 -26 -35 93 13 243
45 326 69 45 14 86 22 90 20 15 -9 -12 -43 -58 -74 -56 -39 -258 -139 -342
-170 -34 -12 -64 -26 -67 -30 -7 -12 182 21 318 55 118 29 127 30 127 13 0
-10 -19 -31 -41 -48 -53 -38 -252 -139 -347 -175 -39 -16 -70 -30 -68 -33 7
-6 189 26 298 54 53 13 99 24 103 24 12 0 -24 -56 -57 -87 -59 -57 -278 -149
-523 -219 -65 -19 -122 -37 -125 -41 -12 -14 310 34 430 64 22 6 21 2 -17 -41
-23 -26 -45 -60 -48 -76 -3 -16 -12 -33 -18 -38 -16 -13 -211 -58 -375 -88
-853 -152 -1946 -88 -2587 151 -249 93 -438 222 -493 337 -22 44 -22 53 -22
551 0 279 2 507 5 507 3 0 38 -24 78 -54z m4 -1283 c285 -211 847 -364 1558
-424 298 -25 901 -12 1217 26 197 24 494 80 633 120 15 4 34 -8 74 -49 l54
-55 -29 -12 c-81 -32 -270 -92 -368 -116 -61 -15 -101 -29 -88 -31 35 -5 272
27 431 59 l143 28 34 -25 c19 -15 32 -30 29 -34 -7 -12 -180 -94 -253 -120
-34 -13 -65 -27 -68 -32 -7 -11 41 -4 244 34 127 24 166 28 175 19 9 -10 5
-18 -18 -37 -40 -32 -264 -146 -343 -174 -70 -25 -91 -43 -40 -34 116 20 334
67 393 84 80 23 89 24 80 10 -24 -39 -318 -201 -452 -250 -35 -12 -63 -25 -63
-28 0 -10 127 8 225 32 55 14 146 40 203 59 56 20 102 32 102 28 0 -12 -69
-64 -143 -110 -152 -93 -347 -176 -558 -236 -173 -50 -173 -54 1 -30 174 25
308 55 445 100 143 46 210 77 297 136 l57 39 27 -35 c33 -43 31 -46 -80 -119
-230 -153 -536 -253 -995 -327 -887 -142 -1995 -53 -2603 211 -190 83 -339
194 -388 290 -21 41 -23 60 -28 275 -4 215 6 785 14 785 2 0 39 -26 81 -57z
m3527 -216 c10 -15 67 -68 127 -118 195 -162 255 -244 346 -467 34 -84 76
-175 93 -202 37 -57 170 -168 249 -207 69 -34 152 -36 206 -4 22 13 35 16 33
9 -2 -7 -24 -23 -48 -36 -37 -19 -55 -22 -100 -17 -134 14 -334 164 -403 301
-9 17 -34 79 -56 137 -71 189 -125 267 -275 394 -193 165 -226 206 -226 275
l1 33 17 -35 c10 -19 26 -47 36 -63z m646 -99 c17 -57 39 -126 49 -154 l18
-51 -58 -18 c-32 -9 -83 -32 -113 -50 l-55 -33 -29 52 c-16 28 -55 83 -87 121
l-57 70 29 23 c73 61 220 141 260 142 7 0 26 -46 43 -102z m107 -10 c-3 -8 -6
-5 -6 6 -1 11 2 17 5 13 3 -3 4 -12 1 -19z m53 -172 c0 -5 -2 -7 -5 -4 -7 6
-45 144 -44 155 1 10 49 -138 49 -151z m57 -168 c12 -35 25 -71 28 -80 5 -12
2 -18 -8 -18 -15 0 -57 104 -57 142 0 36 15 17 37 -44z m-109 -33 c12 -41 22
-81 22 -88 0 -7 -16 -19 -35 -26 -19 -7 -56 -28 -81 -48 -29 -21 -50 -31 -56
-25 -5 5 -22 42 -38 83 l-29 74 32 27 c36 31 124 77 147 78 11 0 23 -23 38
-75z m228 -173 c10 -7 54 -75 54 -84 0 -3 -16 10 -36 28 -64 61 -71 42 -19
-50 19 -35 35 -67 35 -71 0 -5 -31 24 -70 63 -67 70 -90 85 -90 60 0 -20 57
-114 90 -146 38 -39 36 -63 -8 -74 -24 -7 -43 -4 -75 10 -38 17 -153 102 -169
126 -10 14 25 58 72 91 61 42 184 69 216 47z"/>
<path d="M9365 15210 c-17 -28 -19 -183 -1 -241 18 -62 32 -87 42 -76 4 4 -2
80 -12 169 -13 113 -22 158 -29 148z"/>
<path d="M10375 14739 c-35 -9 -122 -76 -111 -87 2 -2 24 7 48 19 62 33 139
30 253 -10 89 -31 104 -30 105 5 1 47 -198 96 -295 73z"/>
<path d="M10412 14644 c-68 -18 -92 -31 -92 -49 0 -11 13 -15 53 -15 32 0 47
-4 39 -9 -11 -6 -7 -13 14 -30 21 -17 39 -21 73 -19 39 3 46 7 51 28 8 34 34
32 38 -2 4 -32 9 -34 40 -12 16 11 19 18 11 27 -5 7 -19 26 -29 44 -30 51 -99
64 -198 37z m73 -87 c-19 -10 -63 12 -45 23 6 4 22 2 35 -4 19 -9 21 -13 10
-19z"/>
<path d="M9545 14090 c3 -5 8 -10 11 -10 2 0 4 5 4 10 0 6 -5 10 -11 10 -5 0
-7 -4 -4 -10z"/>
<path d="M9764 13772 c13 -128 72 -336 83 -290 9 38 -59 342 -80 355 -7 4 -8
-17 -3 -65z"/>
<path d="M9955 13558 c10 -75 53 -176 93 -220 50 -55 56 -47 18 25 -19 34 -51
104 -71 155 -21 50 -39 92 -42 92 -3 0 -2 -24 2 -52z"/>
<path d="M11044 13232 c-21 -20 -72 -74 -112 -120 -79 -88 -168 -157 -253
-197 -58 -26 -177 -54 -237 -56 -35 -1 -34 -2 13 -11 34 -6 80 -6 140 1 182
22 316 120 439 319 31 52 56 96 53 98 -2 2 -21 -13 -43 -34z"/>
<path d="M9490 13060 c0 -31 39 -71 104 -108 71 -41 140 -71 121 -54 -85 77
-225 178 -225 162z"/>
<path d="M9304 12469 c-28 -10 -35 -31 -20 -60 15 -32 58 -46 91 -31 25 12 33
44 17 70 -12 18 -63 31 -88 21z m56 -34 c10 -12 10 -19 2 -27 -9 -9 -12 -9
-12 0 0 7 -9 12 -20 12 -11 0 -20 7 -20 15 0 20 34 19 50 0z"/>
<path d="M10918 12443 c-35 -42 -23 -83 25 -83 47 0 99 58 76 86 -16 20 -82
18 -101 -3z m66 -9 c23 -9 1 -34 -30 -34 -28 0 -31 15 -6 29 21 13 17 12 36 5z"/>
<path d="M9920 12035 c-84 -17 -135 -36 -220 -81 -122 -64 -167 -115 -220
-247 -44 -112 -100 -164 -195 -182 l-40 -8 31 -13 c33 -14 93 -5 144 21 42 22
86 78 109 140 12 31 30 73 41 94 53 105 207 200 407 252 65 17 120 33 122 35
10 9 -119 1 -179 -11z"/>
<path d="M10410 12011 c219 -71 321 -154 350 -286 17 -77 46 -134 74 -147 36
-16 42 -5 17 29 -12 16 -28 64 -37 113 -9 47 -22 96 -29 111 -51 97 -276 211
-415 208 -45 -1 -44 -1 40 -28z"/>
<path d="M10201 11860 c-18 -79 -26 -246 -13 -254 6 -4 16 3 22 14 15 29 24
217 13 260 l-10 35 -12 -55z"/>
<path d="M10666 11682 c-9 -27 -29 -63 -44 -82 -34 -40 -48 -41 -192 -6 -113
28 -184 34 -178 14 5 -14 61 -31 200 -58 135 -27 174 -20 208 35 19 31 41 145
27 145 -3 0 -13 -22 -21 -48z"/>
<path d="M9647 11697 c-3 -9 1 -39 9 -66 15 -52 48 -87 91 -97 27 -7 372 53
390 68 7 6 10 15 7 20 -8 13 -85 4 -252 -30 -120 -24 -136 -25 -159 -12 -24
14 -50 55 -70 109 -8 20 -11 22 -16 8z"/>
<path d="M10201 11391 c-15 -95 -14 -156 3 -171 12 -9 16 -6 21 22 13 74 11
218 -4 218 -4 0 -13 -31 -20 -69z"/>
<path d="M10677 11355 c-12 -56 -41 -108 -78 -140 -35 -29 -30 -29 -154 -2
-139 30 -220 30 -202 0 4 -6 71 -20 149 -33 169 -26 208 -21 257 35 33 38 44
79 39 140 l-3 40 -8 -40z"/>
<path d="M9657 11338 c15 -83 73 -152 140 -164 31 -6 331 20 371 32 8 2 12 10
9 17 -6 19 -205 14 -304 -8 l-82 -18 -28 22 c-33 26 -81 95 -89 128 -9 35 -24
27 -17 -9z"/>
<path d="M10158 11083 c-24 -6 -23 -40 0 -47 10 -4 28 -19 40 -36 l22 -29 45
43 c25 25 45 47 45 49 0 11 -126 28 -152 20z"/>
<path d="M10905 10787 c-33 -19 -118 -71 -190 -116 -71 -45 -168 -101 -214
-124 -73 -36 -95 -42 -170 -47 l-86 -6 60 -13 c45 -11 75 -11 120 -4 119 20
193 60 499 269 103 70 108 74 75 74 -19 0 -60 -15 -94 -33z"/>
<path d="M11367 10405 c-55 -21 -155 -90 -282 -195 -60 -50 -123 -98 -138
-107 -16 -8 -26 -17 -23 -20 12 -13 178 79 276 154 58 44 138 102 178 128 40
26 72 50 72 51 0 8 -48 2 -83 -11z"/>
<path d="M12005 10245 c-148 -32 -306 -116 -404 -213 -76 -76 -89 -106 -24
-55 112 87 308 182 460 223 43 11 89 26 103 32 24 10 24 11 5 19 -28 11 -71 9
-140 -6z"/>
<path d="M11625 10186 c-33 -13 -84 -38 -114 -55 -106 -63 -347 -230 -396
-276 l-50 -45 40 15 c22 9 67 31 100 49 76 42 457 284 493 313 24 20 25 22 7
22 -11 0 -47 -10 -80 -23z"/>
<path d="M11480 9771 c-164 -166 -326 -260 -526 -301 -67 -14 -57 -30 21 -30
212 0 447 154 584 383 12 20 19 37 15 37 -3 0 -46 -40 -94 -89z"/>
<path d="M11120 9744 c-206 -106 -307 -134 -474 -134 -61 0 -131 5 -155 11
-64 14 -62 3 5 -28 51 -24 74 -28 176 -31 196 -7 342 41 506 167 65 49 125
104 111 100 -2 -1 -78 -39 -169 -85z"/>
<path d="M8280 10625 c0 -3 29 -41 64 -85 63 -77 70 -91 108 -230 l13 -45 3
70 c4 91 -17 144 -82 213 -45 48 -106 92 -106 77z"/>
<path d="M8094 10112 c18 -29 105 -62 163 -62 l57 0 -21 21 c-15 15 -40 23
-94 29 -41 5 -83 12 -93 16 -14 5 -17 4 -12 -4z"/>
<path d="M9120 10073 c1 -15 186 -152 280 -207 157 -93 368 -157 515 -155 l70
1 -105 33 c-58 18 -148 45 -200 59 -128 36 -266 100 -419 192 -151 93 -141 87
-141 77z"/>
<path d="M8527 10033 c-37 -19 -122 -32 -169 -25 -58 7 -45 -11 22 -30 76 -23
91 -23 151 3 42 19 47 24 37 37 -7 8 -11 17 -10 19 8 10 -5 8 -31 -4z"/>
<path d="M8440 9937 c0 -9 90 -47 107 -46 10 0 0 8 -22 18 -50 22 -85 34 -85
28z"/>
<path d="M12640 9408 c1 -51 42 -204 64 -238 32 -48 117 -142 124 -136 2 3 -9
21 -27 41 -17 20 -31 37 -31 39 0 2 19 2 43 -1 l42 -4 -30 22 c-80 61 -100 91
-134 197 -30 96 -51 130 -51 80z"/>
<path d="M11909 6633 c-88 -101 -110 -174 -70 -239 17 -29 75 -63 87 -52 3 3
-6 23 -21 43 -34 51 -32 83 15 182 22 47 40 90 40 94 0 18 -19 8 -51 -28z"/>
<path d="M8046 8463 c-4 -203 -4 -381 -1 -398 14 -57 50 -107 109 -152 136
-102 389 -193 657 -237 294 -48 312 -44 94 19 -255 74 -503 188 -635 291 -123
97 -136 113 -62 75 20 -10 76 -32 124 -49 47 -17 111 -45 140 -61 103 -58 215
-48 291 25 57 56 71 89 71 169 0 85 -22 132 -88 193 -52 48 -78 57 -161 57
-79 -1 -128 -26 -172 -87 l-35 -48 -60 43 c-34 23 -86 66 -117 95 l-56 53 50
-24 c71 -35 192 -77 219 -77 25 0 68 40 50 47 -38 13 -215 135 -262 180 l-57
54 40 -19 c114 -54 410 -132 615 -160 310 -44 326 -39 85 27 -333 90 -579 191
-741 302 -39 27 -75 49 -81 49 -7 0 -13 -125 -17 -367z m631 -227 c28 -30 33
-43 33 -85 0 -91 -72 -141 -153 -107 -66 27 -94 103 -62 170 36 75 124 86 182
22z m-372 -36 c45 -15 51 -20 56 -53 3 -20 4 -39 1 -41 -7 -8 -112 67 -167
118 l-50 47 55 -27 c30 -15 77 -35 105 -44z"/>
<path d="M11555 8400 c-3 -5 -1 -10 4 -10 6 0 11 5 11 10 0 6 -2 10 -4 10 -3
0 -8 -4 -11 -10z"/>
<path d="M8050 7393 c0 -82 -3 -247 -6 -368 -8 -268 -4 -289 69 -360 54 -52
185 -126 301 -170 139 -52 377 -105 586 -130 72 -8 55 7 -35 30 -221 57 -490
170 -637 268 -90 60 -176 133 -143 122 115 -40 239 -93 280 -118 42 -27 61
-33 126 -35 90 -5 134 13 192 77 104 115 58 308 -93 387 -49 25 -144 24 -199
-3 -28 -14 -38 -16 -29 -6 13 16 10 19 -47 50 -80 43 -272 189 -262 200 3 2
23 -5 45 -16 99 -50 411 -132 616 -160 273 -38 316 -36 146 8 -353 92 -640
205 -812 321 -42 27 -81 50 -87 50 -8 0 -11 -46 -11 -147z m285 -308 c50 -16
92 -29 94 -31 6 -5 -40 -74 -51 -74 -15 0 -132 86 -186 136 l-47 45 50 -25
c28 -13 91 -36 140 -51z m315 -110 c39 -20 60 -63 60 -120 0 -38 -5 -52 -29
-76 -68 -67 -199 -13 -201 83 -1 97 87 156 170 113z m-343 -59 c48 -16 52 -19
58 -57 4 -22 5 -42 3 -44 -7 -7 -142 92 -178 130 l-35 37 50 -25 c28 -13 73
-32 102 -41z"/>
<path d="M8056 6263 c-3 -3 -6 -181 -6 -395 0 -444 -1 -437 88 -503 107 -80
337 -172 543 -219 107 -24 303 -56 340 -55 l34 1 -35 10 c-135 40 -298 95
-370 125 -196 80 -385 190 -455 263 l-30 31 55 -24 c30 -13 87 -34 125 -47 39
-13 87 -38 109 -56 77 -66 206 -68 294 -4 54 39 92 117 92 189 0 171 -177 299
-327 236 -43 -18 -43 -18 -38 -2 3 7 -30 32 -78 61 -137 82 -307 222 -209 173
102 -52 410 -134 607 -161 322 -46 342 -42 115 18 -329 87 -585 192 -770 316
-74 49 -76 50 -84 43z m305 -463 c39 -11 74 -22 76 -24 5 -5 -46 -76 -54 -76
-13 0 -153 104 -188 140 l-40 41 67 -30 c36 -17 99 -40 139 -51z m-96 -142
c44 -19 86 -37 93 -41 12 -8 18 -77 6 -77 -11 0 -126 86 -169 125 -44 40 -44
40 70 -7z m411 8 c30 -30 34 -40 34 -86 0 -44 -4 -56 -29 -81 -23 -23 -38 -29
-71 -29 -114 0 -169 123 -90 202 23 23 37 28 75 28 40 0 52 -5 81 -34z"/>
<path d="M13525 3977 c-78 -21 -122 -46 -165 -95 -95 -107 -91 -291 7 -384 43
-41 117 -74 242 -108 169 -46 211 -71 211 -127 0 -75 -47 -106 -156 -106 -89
1 -163 22 -234 67 -30 20 -58 36 -61 36 -4 0 -33 -32 -65 -71 l-58 -71 29 -25
c46 -37 163 -90 235 -107 36 -9 102 -16 147 -16 151 0 235 30 307 111 53 58
69 102 70 184 0 163 -87 245 -334 315 -63 18 -127 39 -142 47 -85 42 -72 146
23 174 57 17 159 -3 253 -51 l76 -38 34 58 c19 32 41 69 50 82 l17 25 -68 36
c-38 19 -93 42 -123 51 -75 23 -232 29 -295 13z"/>
<path d="M6425 3839 c-4 -78 -4 -301 0 -495 l7 -354 99 0 99 0 0 195 0 195
210 0 210 0 0 -195 0 -195 105 0 105 0 0 495 0 495 -99 0 c-94 0 -99 -1 -105
-22 -3 -13 -6 -103 -6 -200 l0 -178 -210 0 -210 0 0 200 0 200 -99 0 -99 0 -7
-141z"/>
<path d="M7820 3485 c0 -270 2 -494 4 -496 2 -2 176 -3 385 -1 l381 2 0 90 0
90 -280 0 -280 0 0 110 0 110 240 0 240 0 0 95 0 95 -240 0 -240 0 0 105 0
105 275 0 275 0 0 95 0 95 -380 -1 -380 -1 0 -493z"/>
<path d="M9100 3486 l0 -496 100 0 c88 0 100 2 100 18 1 9 1 79 0 155 l-1 138
103 -3 102 -3 101 -152 100 -153 123 0 c67 0 122 2 122 4 0 2 -53 80 -118 173
l-119 168 45 22 c61 29 116 86 144 147 19 42 23 68 23 146 0 84 -3 101 -27
146 -38 72 -103 126 -184 153 -60 19 -96 22 -340 28 l-274 6 0 -497z m544 278
c99 -51 101 -195 4 -254 -29 -18 -51 -20 -190 -20 l-158 0 0 143 c0 79 3 147
8 151 4 4 72 6 152 4 123 -2 151 -6 184 -24z"/>
<path d="M10447 3973 c-9 -8 -9 -196 0 -636 l6 -347 98 0 99 0 2 327 3 327 71
-109 c39 -61 104 -165 145 -232 41 -67 78 -121 84 -119 5 1 70 100 145 219 74
119 143 224 153 234 16 16 17 1 17 -315 l0 -332 100 0 c73 0 100 3 100 13 5
142 -3 964 -9 970 -4 4 -59 4 -122 1 -111 -7 -116 -8 -131 -33 -137 -235 -243
-411 -247 -411 -4 0 -42 57 -85 128 -44 70 -108 171 -143 225 l-62 97 -109 0
c-60 0 -112 -3 -115 -7z"/>
<path d="M12040 3485 l0 -495 380 0 380 0 0 90 0 90 -276 2 -276 3 0 105 0
105 241 3 241 2 0 95 0 95 -245 0 -246 0 3 103 3 102 278 3 277 2 0 93 0 92
-380 2 -380 3 0 -495z"/>
</g>
</svg>
