<svg width="735" height="744" viewBox="0 0 735 744" fill="none" xmlns="http://www.w3.org/2000/svg">
<path d="M3.33338 11.6002C5.20005 23.3335 7.60005 31.4668 11.0667 38.0002C11.8667 39.4668 13.2 42.1335 14.1334 44.0002C19.8667 54.8002 38.9334 71.4668 55.0667 79.6002C74.5334 89.3335 107.333 97.6002 147.733 102.8C152.933 103.467 161.733 104.533 167.067 105.2C193.2 108.667 212.933 110.667 219.333 110.667C232.4 110.667 234.133 111.467 238.133 119.733C244 131.733 256.933 142.533 270.933 147.067C272.933 147.733 273.067 149.333 272.4 159.733C271.733 170.667 271.867 171.867 274.933 176.8C282.667 188.8 292.533 196.267 305.2 199.467C314 201.734 314.533 202 316.133 207.067C318.533 214.267 329.2 225.6 336.267 228.534C347.867 233.467 348.267 233.734 346.4 235.467C345.2 236.534 342 236.8 336.933 236.4C326.667 235.467 316.933 229.6 311.067 220.667C302.4 207.6 299.867 206.8 286.4 213.334C281.867 215.467 276.267 217.334 273.867 217.334C271.467 217.334 269.067 217.867 268.667 218.667C268.267 219.334 265.467 220 262.667 220C259.867 220 257.2 220.534 256.8 221.2C256.4 221.867 253.467 222.8 250.4 223.2C240 224.8 223.467 226.8 214.133 227.734L204.8 228.667L205.2 255.2C205.333 269.867 206.133 283.2 206.8 284.934C207.467 286.667 208 291.067 208 294.667C208 298.267 208.667 302.8 209.333 304.8C212.4 312.534 210.8 327.867 206.667 332C205.867 332.8 203.467 336.934 199.6 344.134C198.133 346.8 195.333 351.067 193.2 353.467C191.067 356 189.333 358.4 189.333 358.934C189.333 359.467 188.533 361.067 187.467 362.267C181.467 369.6 164.267 393.334 164.933 393.334C165.333 393.334 164.667 394.534 163.333 396C161.333 398.134 161.067 399.467 162.133 402.4C164 407.867 170.933 410.667 182.4 410.667C190.667 410.667 224.267 406.4 230.667 404.667C232.933 404 237.333 410.667 237.333 414.8C237.333 416.267 237.867 418.4 238.533 419.734C239.2 420.934 240.667 424.267 241.867 426.934C246.933 438.8 248.533 442.534 252.4 450.667C254.8 455.467 256.933 459.6 257.467 460C257.867 460.4 259.067 462.667 260.133 465.067C261.2 467.334 262.4 469.334 262.933 469.334C263.6 469.334 264 470.267 264 471.334C264 472.4 264.4 473.334 265.067 473.334C265.6 473.334 266.8 474.934 267.733 476.934C268.533 479.067 271.733 483.334 274.667 486.667C280 492.534 280.133 492.934 279.467 500.667C279.2 505.067 278.267 511.6 277.333 515.334C276.533 518.934 275.467 524.4 275.067 527.334C274.667 530.267 273.867 533.2 273.2 534C272.533 534.667 272 536.8 272 538.8C272 540.8 271.467 542.934 270.667 543.334C270 543.734 269.333 545.334 269.333 546.8C269.333 548.134 268.8 550.534 268 552C267.333 553.467 266.133 555.867 265.333 557.334C264.667 558.8 264 560.934 264 562C264 563.067 263.6 564 262.933 564C262.4 564 260.933 566.267 259.733 568.934C256.933 575.067 253.2 581.334 250.933 583.734C250 584.8 247.6 587.734 245.6 590.4C243.6 593.2 238.267 599.2 233.733 603.734C229.067 608.4 225.333 612.8 225.333 613.334C225.333 614 228.8 614.8 233.067 615.2C245.333 616.267 252 617.467 252.8 618.8C253.2 619.467 254.933 620 256.667 620C258.4 620 261.2 620.534 262.933 621.2C264.667 621.867 269.6 623.467 274 624.667C282.933 627.2 305.067 635.2 311.6 638.134C313.867 639.2 316.133 640 316.533 640C318.933 640 372.667 666.534 390.533 676.534C396.667 680 410.133 688 420.533 694.267C452.267 713.6 461.333 718.667 478.8 727.2C494.533 734.934 509.733 740.134 511.467 738.4C511.867 737.867 510.667 732.8 508.933 727.067C499.2 696.4 495.067 673.6 496.667 658.4C497.2 652.4 499.733 643.2 503.6 632.8C509.867 616 520.4 577.067 519.733 572.934C519.333 570.134 515.067 567.6 506.667 565.2C503.333 564.267 500.133 563.067 499.333 562.534C497.6 561.334 488.4 556.134 483.733 553.734C481.733 552.667 479.733 551.2 479.2 550.4C478.667 549.467 479.2 549.467 480.933 550.534C488.133 554.267 534.4 564.667 562.667 568.8C584 571.867 608.8 570.934 618 566.8C627.2 562.667 633.067 556.667 635.333 548.8C638.267 539.067 637.733 531.734 633.333 515.334C628.133 496 628.133 494.534 634.667 487.467C640.533 481.067 641.2 478.8 637.6 475.6C635.733 473.867 632.4 473.334 624.533 473.2C618.8 473.067 612.533 472.667 610.667 472.134C607.867 471.2 608.8 470.667 617.333 468.267C622.8 466.667 630.4 464.4 634.133 463.334C637.867 462.267 642.267 459.867 643.867 458.134C646.933 454.934 646.933 454.8 644.8 447.6C643.6 443.6 642.667 436.934 642.667 432.8V425.334H649.733C658.8 425.2 671.6 422.134 676 418.934C678.533 417.067 679.467 414.934 679.733 410.8C680.267 403.6 679.2 400.8 662.667 363.334C655.2 346.4 647.467 329.067 645.733 324.667L642.267 316.667L645.333 304.4C648.8 290.267 648.533 285.2 643.333 267.867C641.467 261.867 640 256.267 640 255.334C640 254.534 647.333 251.6 656.4 248.8C689.467 238.534 714.267 226.667 724.8 215.867C728.933 211.6 729.333 210.534 728 208.134C726.4 205.067 717.467 200.267 708 197.467C704.667 196.534 700.8 195.2 699.333 194.667C697.867 194 694.267 192.8 691.333 191.867C688.4 191.067 684.667 189.867 682.933 189.2C681.2 188.533 678.4 188 676.667 188C674.933 188 673.067 187.333 672.667 186.667C672.267 185.867 669.867 185.333 667.333 185.333C664.8 185.333 662.4 184.667 662 184C661.6 183.2 659.467 182.667 657.333 182.667C655.2 182.667 653.067 182 652.667 181.333C652.267 180.533 650.533 180 648.933 180C645.733 180 636.533 177.067 635.2 175.6C634.667 175.067 633.333 174.667 632.4 174.667C629.733 174.667 621.733 168 606.133 152.8C594.133 141.2 582.933 131.333 564 116C557.467 110.667 543.867 101.333 536.4 97.0668C524.8 90.4002 506.133 81.3335 504 81.3335C502.8 81.3335 501.333 80.8002 500.667 80.2668C499.867 79.6002 496.667 78.4002 493.333 77.4668C490 76.5335 486.133 75.2002 484.667 74.5335C483.2 74.0002 479.867 73.2002 477.333 72.8002C474.8 72.4002 469.333 71.3335 465.333 70.5335C457.467 68.8002 401.333 68.2668 390.667 69.8668C381.467 71.2002 370.267 73.4668 367.333 74.6668C365.867 75.3335 362.933 76.1335 360.667 76.4002C353.6 77.6002 349.333 79.8668 349.333 82.2668C349.333 83.6002 351.467 87.3335 354.133 90.6668C360 98.0002 361.867 102.4 366.667 118.267C368.267 123.6 368.133 132.4 365.867 150.4C365.067 156.933 366.133 163.6 369.6 174C375.2 190.667 387.333 204.8 405.733 215.867C412.533 220 412 223.467 404.667 222.934C401.733 222.667 398.8 221.867 398.133 221.2C397.333 220.534 395.733 220 394.4 220C393.067 220 392 219.467 392 218.8C392 218.134 390.667 217.067 389.067 216.534C384.667 215.2 371.2 201.867 365.2 193.067C362.4 188.934 358.533 180.933 356.667 175.333C353.333 165.333 353.2 164 353.6 138.133L354 111.333L350.4 104C342.267 87.6002 325.867 75.2002 304.667 69.6002C293.867 66.6668 290 66.1335 259.333 62.6668C232.267 59.7335 212.267 57.0668 200 54.8002C196 54.0002 189.333 52.8002 185.333 52.0002C173.867 50.0002 162.4 47.7335 144.667 44.0002C141.067 43.3335 134.667 42.0002 130.667 41.3335C111.733 37.7335 102.533 35.7335 82.4001 30.5335C79.2001 29.7335 74.6667 28.8002 72.2667 28.4002C69.8667 28.0002 67.6 27.2002 67.2 26.5335C66.8 25.8668 64.8 25.3335 62.6667 25.3335C60.5334 25.3335 58.4 24.6668 58 24.0002C57.6 23.2002 55.4667 22.6668 53.3334 22.6668C51.2 22.6668 49.0667 22.0002 48.6667 21.3335C48.2667 20.5335 46.4 20.0002 44.6667 20.0002C42.9334 20.0002 41.0667 19.3335 40.6667 18.6668C40.2667 17.8668 38.6667 17.3335 37.2 17.3335C34.6667 17.3335 33.4667 16.8002 27.0667 13.6002C25.3334 12.6668 23.2 12.0002 22 12.0002C20.9334 12.0002 18 10.8002 15.3334 9.33349C12.6667 7.86682 8.80005 6.66682 6.53338 6.66682C2.66671 6.66682 2.53338 6.80016 3.33338 11.6002ZM660 203.2C676.267 205.334 685.333 207.6 685.333 209.334C685.333 211.067 686.8 210.8 668.667 212.134C640.533 214.134 634 214.8 631.333 216C629.867 216.667 625.733 217.467 622 217.867C611.6 218.8 595.067 221.867 581.333 225.334C578 226.134 573.2 227.2 570.667 227.467C568.133 227.867 564.8 228.667 563.333 229.334C561.867 230 558.533 230.8 556 231.2C551.067 231.867 544.133 233.467 535.333 236C532.4 236.934 528 237.867 525.6 238.267C523.2 238.667 520.933 239.467 520.533 240.134C520.133 240.8 518.267 241.334 516.267 241.334C512.533 241.467 495.467 246.8 493.733 248.4C493.333 248.934 491.467 249.334 489.867 249.334C488.133 249.334 486.4 249.867 486 250.667C485.6 251.334 483.2 252 480.667 252C478.133 252 475.733 252.534 475.333 253.334C474.933 254 473.333 254.667 471.867 254.667C470.533 254.667 468.267 255.2 466.933 255.867C465.733 256.534 463.2 257.6 461.333 258.267C459.467 259.067 456.533 260.267 454.667 260.934C452.8 261.734 448.933 263.067 446 263.867C443.067 264.8 439.467 266 438 266.534C432.133 268.934 427.2 271.067 425.067 272.134C423.733 272.8 421.867 273.334 420.933 273.334C419.867 273.334 414.4 275.734 408.667 278.667C402.933 281.6 397.6 284 396.667 284C395.733 284 390.4 286.4 384.667 289.334C378.933 292.267 373.733 294.667 373.067 294.667C371.067 294.667 349.6 305.334 340.133 310.934C335.6 313.734 331.467 316 331.067 316C330.8 316 327.867 317.734 324.667 320C321.467 322.134 318.4 324 317.733 324C317.2 324 311.867 326.8 306 330.4C300 333.867 293.467 337.6 291.333 338.667C289.067 339.734 283.067 343.334 278 346.667C272.8 350 264.533 354.8 259.6 357.334C254.667 359.867 246.4 365.2 241.067 368.934C225.333 380.667 221.067 377.467 234.933 364.534C268.933 333.067 351.467 283.734 415.333 256.8C487.067 226.4 543.467 210.934 614 202.267C623.867 201.067 647.2 201.467 660 203.2ZM609.6 285.867C615.867 288.534 617.467 290.8 616.533 295.734C615.467 300.8 613.333 301.467 600.4 299.734C589.2 298.4 568.4 299.334 562.8 301.6C560.933 302.4 558.133 303.467 556.667 304.134C555.2 304.667 551.333 305.6 548 306L542 306.8L546 303.334C562 289.867 596.4 280.4 609.6 285.867ZM482.4 290.267C482.533 292.4 482 295.2 481.467 296.667C480.8 298.134 479.733 300.8 478.933 302.667C478.267 304.534 476.8 308.134 475.867 310.667C474.933 313.2 473.067 316.934 471.733 318.934C470.4 320.8 469.333 323.067 469.333 323.867C469.333 326 452.267 342.667 450 342.667C448.933 342.667 448 343.067 448 343.734C448 344.267 446 345.467 443.733 346.4C441.333 347.467 438.133 348.667 436.667 349.334C430.267 352 418.667 353.734 418.667 352C418.667 351.6 422.8 348.8 428 345.6C442.133 336.934 457.067 322 468.133 305.6C476.933 292.667 481.2 286.667 482 286.667C482.267 286.667 482.4 288.267 482.4 290.267ZM591.867 328.667C591.867 336.267 588.533 347.334 586.267 347.734C585.067 348 584 347.6 584 346.8C584 346 583.2 345.334 582.4 345.334C581.467 345.334 579.2 344.134 577.333 342.667C575.467 341.2 572.667 340 571.067 340C569.467 340 567.733 339.334 567.333 338.667C566.933 337.867 565.2 337.334 563.6 337.334C562 337.334 559.467 336.4 558.133 335.334C555.733 333.467 556 333.2 563.467 329.867C567.733 328 575.6 325.334 580.667 324C590.933 321.334 592 321.867 591.867 328.667ZM371.867 326.667C386.4 329.334 398.267 338 405.067 350.8C410.267 360.667 407.733 367.867 401.733 360.534C395.067 352.534 387.467 345.334 385.733 345.334C384.8 345.334 384 344.667 384 344C384 343.2 382.933 342.667 381.6 342.667C380.267 342.667 378.4 341.867 377.6 340.934C376.4 339.867 371.867 339.334 364.4 339.334H353.067L347.333 345.6C341.067 352.534 339.333 359.2 340.8 371.2C341.733 379.334 343.067 383.467 348.133 394C354.133 406.534 361.067 414.534 372.533 422.267C387.6 432.4 395.333 433.2 402.533 425.2C407.2 420.134 410.667 421.067 410.667 427.6C410.667 432.8 408.267 438.134 404 442C401.733 444.134 399.2 444.534 391.6 444.534C378.8 444.534 368.133 439.334 355.6 427.2C321.467 393.867 315.2 348.534 342.533 331.067C351.467 325.334 359.067 324.267 371.867 326.667ZM615.333 409.334C614.8 410.134 615.467 412.534 616.533 414.934C617.733 417.2 618.667 419.867 618.667 420.934C618.667 421.867 619.867 423.867 621.467 425.467C625.067 429.067 624.4 429.467 618 427.2C609.2 424.267 606.933 418.134 612.133 411.467C614.8 408.134 617.067 406.667 615.333 409.334ZM346.8 439.467C348.133 447.334 346.8 458.667 343.733 464.667C340.667 470.934 328.667 481.334 324.667 481.334C323.067 481.334 321.2 482 320.4 482.8C318.8 484.4 307.867 484.934 305.467 483.467C304.4 482.8 305.733 481.467 309.2 479.734C317.733 475.6 331.467 462.134 335.2 454.267C336.933 450.4 338.933 443.6 339.333 438.934C340.267 430.667 340.4 430.534 343.2 432.4C344.933 433.6 346.4 436.4 346.8 439.467Z" fill="#DADBDD"/>
<path d="M53.0665 95.4668C51.9998 96.4002 55.7332 107.733 59.0665 114C59.8665 115.467 61.3332 118.267 62.2665 120.133C67.4665 130.4 88.7998 146.133 104 151.067C127.866 158.8 151.6 161.333 198.533 161.333C233.2 161.333 257.866 159.733 260.533 157.2C261.2 156.533 259.866 155.067 257.333 153.733C249.333 149.333 239.066 140.133 234.933 133.733C227.333 121.867 227.066 121.733 220.4 120.667C216.933 120.133 205.066 119.2 194 118.533C173.066 117.333 154.933 115.733 136 113.467C129.733 112.667 121.733 111.733 118 111.333C114.4 110.933 109.2 110 106.667 109.333C104.133 108.667 96.6665 106.8 89.9998 105.2C83.4665 103.6 73.0665 100.533 67.0665 98.5335C55.7332 94.5335 54.2665 94.1335 53.0665 95.4668Z" fill="#DADBDD"/>
<path d="M118.667 169.2C118.667 174.534 125.734 187.334 133.067 194.934C145.334 207.867 157.734 213.334 181.6 216C202.267 218.4 224.534 216.4 266 208.534C275.6 206.667 284 204.534 284.667 203.867C285.6 202.934 284.934 201.6 282.667 199.867C274.534 193.6 267.6 185.334 263.867 177.467L259.734 169.067L251.467 169.867C247.067 170.4 238.8 171.467 233.334 172.134C227.867 172.934 209.067 173.867 191.467 174.134C157.734 174.8 159.334 174.934 121.734 166.934C119.334 166.534 118.667 166.934 118.667 169.2Z" fill="#DADBDD"/>
</svg>
