<?xml version="1.0" standalone="no"?>
<!DOCTYPE svg PUBLIC "-//W3C//DTD SVG 20010904//EN"
 "http://www.w3.org/TR/2001/REC-SVG-20010904/DTD/svg10.dtd">
<svg version="1.0" xmlns="http://www.w3.org/2000/svg"
 width="551.000000pt" height="558.000000pt" viewBox="0 0 551.000000 558.000000"
 preserveAspectRatio="xMidYMid meet">

<g transform="translate(0.000000,558.000000) scale(0.100000,-0.100000)"
fill="#000000" stroke="none">
<path d="M25 5493 c14 -88 32 -149 58 -198 6 -11 16 -31 23 -45 43 -81 186
-206 307 -267 146 -73 392 -135 695 -174 39 -5 105 -13 145 -18 196 -26 344
-41 392 -41 98 0 111 -6 141 -68 44 -90 141 -171 246 -205 15 -5 16 -17 11
-95 -5 -82 -4 -91 19 -128 58 -90 132 -146 227 -170 66 -17 70 -19 82 -57 18
-54 98 -139 151 -161 87 -37 90 -39 76 -52 -9 -8 -33 -10 -71 -7 -77 7 -150
51 -194 118 -65 98 -84 104 -185 55 -34 -16 -76 -30 -94 -30 -18 0 -36 -4 -39
-10 -3 -5 -24 -10 -45 -10 -21 0 -41 -4 -44 -9 -3 -5 -25 -12 -48 -15 -78 -12
-202 -27 -272 -34 l-70 -7 3 -199 c1 -110 7 -210 12 -223 5 -13 9 -46 9 -73 0
-27 5 -61 10 -76 23 -58 11 -173 -20 -204 -6 -6 -24 -37 -53 -91 -11 -20 -32
-52 -48 -70 -16 -19 -29 -37 -29 -41 0 -4 -6 -16 -14 -25 -45 -55 -174 -233
-169 -233 3 0 -2 -9 -12 -20 -15 -16 -17 -26 -9 -48 14 -41 66 -62 152 -62 62
0 314 32 362 45 17 5 50 -45 50 -76 0 -11 4 -27 9 -37 5 -9 16 -34 25 -54 38
-89 50 -117 79 -178 18 -36 34 -67 38 -70 3 -3 12 -20 20 -38 8 -17 17 -32 21
-32 5 0 8 -7 8 -15 0 -8 3 -15 8 -15 4 0 13 -12 20 -27 6 -16 30 -48 52 -73
40 -44 41 -47 36 -105 -2 -33 -9 -82 -16 -110 -6 -27 -14 -68 -17 -90 -3 -22
-9 -44 -14 -50 -5 -5 -9 -21 -9 -36 0 -15 -4 -31 -10 -34 -5 -3 -10 -15 -10
-26 0 -10 -4 -28 -10 -39 -5 -11 -14 -29 -20 -40 -5 -11 -10 -27 -10 -35 0 -8
-3 -15 -8 -15 -4 0 -15 -17 -24 -37 -21 -46 -49 -93 -66 -111 -7 -8 -25 -30
-40 -50 -15 -21 -55 -66 -89 -100 -35 -35 -63 -68 -63 -72 0 -5 26 -11 58 -14
92 -8 142 -17 148 -27 3 -5 16 -9 29 -9 13 0 34 -4 47 -9 13 -5 50 -17 83 -26
67 -19 233 -79 282 -101 17 -8 34 -14 37 -14 18 0 421 -199 555 -274 46 -26
147 -86 225 -133 238 -145 306 -183 437 -247 118 -58 232 -97 245 -84 3 4 -6
42 -19 85 -73 230 -104 401 -92 515 4 45 23 114 52 192 47 126 126 418 121
449 -3 21 -35 40 -98 58 -25 7 -49 16 -55 20 -13 9 -82 48 -117 66 -15 8 -30
19 -34 25 -4 7 0 7 13 -1 54 -28 401 -106 613 -137 160 -23 346 -16 415 15 69
31 113 76 130 135 22 73 18 128 -15 251 -39 145 -39 156 10 209 44 48 49 65
22 89 -14 13 -39 17 -98 18 -43 1 -90 4 -104 8 -21 7 -14 11 50 29 41 12 98
29 126 37 28 8 61 26 73 39 23 24 23 25 7 79 -9 30 -16 80 -16 111 l0 56 53 0
c68 1 164 24 197 48 19 14 26 30 28 61 4 54 -4 75 -128 356 -56 127 -114 257
-127 290 l-26 60 23 92 c26 106 24 144 -15 274 -14 45 -25 87 -25 94 0 6 55
28 123 49 248 77 434 166 513 247 31 32 34 40 24 58 -12 23 -79 59 -150 80
-25 7 -54 17 -65 21 -11 5 -38 14 -60 21 -22 6 -50 15 -63 20 -13 5 -34 9 -47
9 -13 0 -27 5 -30 10 -3 6 -21 10 -40 10 -19 0 -37 5 -40 10 -3 6 -19 10 -35
10 -16 0 -32 5 -35 10 -3 6 -16 10 -28 10 -24 0 -93 22 -103 33 -4 4 -14 7
-21 7 -20 0 -80 50 -197 164 -90 87 -174 161 -316 276 -49 40 -151 110 -207
142 -87 50 -227 118 -243 118 -9 0 -20 4 -25 8 -6 5 -30 14 -55 21 -25 7 -54
17 -65 22 -11 4 -36 10 -55 13 -19 3 -60 11 -90 17 -59 13 -480 17 -560 5 -69
-10 -153 -27 -175 -36 -11 -5 -33 -11 -50 -13 -53 -9 -85 -26 -85 -44 0 -10
16 -38 36 -63 44 -55 58 -88 94 -207 12 -40 11 -106 -6 -241 -6 -49 2 -99 28
-177 42 -125 133 -231 271 -314 51 -31 47 -57 -8 -53 -22 2 -44 8 -49 13 -6 5
-18 9 -28 9 -10 0 -18 4 -18 9 0 5 -10 13 -22 17 -33 10 -134 110 -179 176
-21 31 -50 91 -64 133 -25 75 -26 85 -23 279 l3 201 -27 55 c-61 123 -184 216
-343 258 -81 22 -110 26 -340 52 -203 22 -353 42 -445 59 -30 6 -80 15 -110
21 -86 15 -172 32 -305 60 -27 5 -75 15 -105 20 -142 27 -211 42 -362 81 -24
6 -58 13 -76 16 -18 3 -35 9 -38 14 -3 5 -18 9 -34 9 -16 0 -32 5 -35 10 -3 6
-19 10 -35 10 -16 0 -32 5 -35 10 -3 6 -17 10 -30 10 -13 0 -27 5 -30 10 -3 6
-15 10 -26 10 -19 0 -28 4 -76 28 -13 7 -29 12 -38 12 -8 0 -30 9 -50 20 -20
11 -49 20 -66 20 -29 0 -30 -1 -24 -37z m4925 -1437 c122 -16 190 -33 190 -46
0 -13 11 -11 -125 -21 -211 -15 -260 -20 -280 -29 -11 -5 -42 -11 -70 -14 -78
-7 -202 -30 -305 -56 -25 -6 -61 -14 -80 -16 -19 -3 -44 -9 -55 -14 -11 -5
-36 -11 -55 -14 -37 -5 -89 -17 -155 -36 -22 -7 -55 -14 -73 -17 -18 -3 -35
-9 -38 -14 -3 -5 -17 -9 -32 -9 -28 -1 -156 -41 -169 -53 -3 -4 -17 -7 -29 -7
-13 0 -26 -4 -29 -10 -3 -5 -21 -10 -40 -10 -19 0 -37 -4 -40 -10 -3 -5 -15
-10 -26 -10 -10 0 -27 -4 -37 -9 -9 -5 -28 -13 -42 -18 -14 -6 -36 -15 -50
-20 -14 -6 -43 -16 -65 -22 -22 -7 -49 -16 -60 -20 -44 -18 -81 -34 -97 -42
-10 -5 -24 -9 -31 -9 -8 0 -49 -18 -92 -40 -43 -22 -83 -40 -90 -40 -7 0 -47
-18 -90 -40 -43 -22 -82 -40 -87 -40 -15 0 -176 -80 -247 -122 -34 -21 -65
-38 -68 -38 -2 0 -24 -13 -48 -30 -24 -16 -47 -30 -52 -30 -4 0 -44 -21 -88
-48 -45 -26 -94 -54 -110 -62 -17 -8 -62 -35 -100 -60 -39 -25 -101 -61 -138
-80 -37 -19 -99 -59 -139 -87 -118 -88 -150 -64 -46 33 255 236 874 606 1353
808 538 228 961 344 1490 409 74 9 249 6 345 -7z m-378 -620 c47 -20 59 -37
52 -74 -8 -38 -24 -43 -121 -30 -84 10 -240 3 -282 -14 -14 -6 -35 -14 -46
-19 -11 -4 -40 -11 -65 -14 l-45 -6 30 26 c120 101 378 172 477 131z m-954
-33 c1 -16 -3 -37 -7 -48 -5 -11 -13 -31 -19 -45 -5 -14 -16 -41 -23 -60 -7
-19 -21 -47 -31 -62 -10 -14 -18 -31 -18 -37 0 -16 -128 -141 -145 -141 -8 0
-15 -3 -15 -8 0 -4 -15 -13 -32 -20 -18 -8 -42 -17 -53 -22 -48 -20 -135 -33
-135 -20 0 3 31 24 70 48 106 65 218 177 301 300 66 97 98 142 104 142 2 0 3
-12 3 -27z m821 -288 c0 -57 -25 -140 -42 -143 -9 -2 -17 1 -17 7 0 6 -6 11
-12 11 -7 0 -24 9 -38 20 -14 11 -35 20 -47 20 -12 0 -25 5 -28 10 -3 6 -16
10 -28 10 -12 0 -31 7 -41 15 -18 14 -16 16 40 41 32 14 91 34 129 44 77 20
85 16 84 -35z m-1650 15 c109 -20 198 -85 249 -181 39 -74 20 -128 -25 -73
-50 60 -107 114 -120 114 -7 0 -13 5 -13 10 0 6 -8 10 -18 10 -10 0 -24 6 -30
13 -9 8 -43 12 -99 12 l-85 0 -43 -47 c-47 -52 -60 -102 -49 -192 7 -61 17
-92 55 -171 45 -94 97 -154 183 -212 113 -76 171 -82 225 -22 35 38 61 31 61
-18 0 -39 -18 -79 -50 -108 -17 -16 -36 -19 -93 -19 -96 0 -176 39 -270 130
-256 250 -303 590 -98 721 67 43 124 51 220 33z m1826 -620 c-4 -6 1 -24 9
-42 9 -17 16 -37 16 -45 0 -7 9 -22 21 -34 27 -27 22 -30 -26 -13 -66 22 -83
68 -44 118 20 25 37 36 24 16z m-2014 -226 c10 -59 0 -144 -23 -189 -23 -47
-113 -125 -143 -125 -12 0 -26 -5 -32 -11 -12 -12 -94 -16 -112 -5 -8 5 2 15
28 28 64 31 167 132 195 191 13 29 28 80 31 115 7 62 8 63 29 49 13 -9 24 -30
27 -53z"/>
<path d="M398 4864 c-8 -7 20 -92 45 -139 6 -11 17 -32 24 -46 39 -77 199
-195 313 -232 179 -58 357 -77 709 -77 260 0 445 12 465 31 5 5 -5 16 -24 26
-60 33 -137 102 -168 150 -57 89 -59 90 -109 98 -26 4 -115 11 -198 16 -157 9
-293 21 -435 38 -47 6 -107 13 -135 16 -27 3 -66 10 -85 15 -19 5 -75 19 -125
31 -49 12 -127 35 -172 50 -85 30 -96 33 -105 23z"/>
<path d="M890 4311 c0 -40 53 -136 108 -193 92 -97 185 -138 364 -158 155 -18
322 -3 633 56 72 14 135 30 140 35 7 7 2 17 -15 30 -61 47 -113 109 -141 168
l-31 63 -62 -6 c-33 -4 -95 -12 -136 -17 -41 -6 -182 -13 -314 -15 -253 -5
-241 -6 -523 54 -18 3 -23 0 -23 -17z"/>
</g>
</svg>
